<svg xmlns="http://www.w3.org/2000/svg" xml:space="preserve" viewBox="0 0 600 600"><path d="M117 306.9c10.1 5.3 20.2 10.3 31.9 11.8 18.3 2.4 35.7 0 52.1-9 1.8-1 3.4-2.5 5.7-2.8 8 0 16-.4 23.9 1.1 23.9 4.7 42.8 18.3 43.8 45.6 1.1 28.9.2 57.8.1 86.7 0 5.2-3.9 8.6-9.2 8.7-12.3.1-24.5-.1-36.8.1-3.1 0-3.9-1.1-3.8-4 .1-9.5 0-18.9-.1-28.4-.1-5.6-3.5-9.4-8.4-9.4-4.4.1-8.7 4.1-8.5 9.5.4 9.3-.1 18.6 0 27.9.1 3.5-1.1 4.4-4.5 4.4q-41.7-.15-83.4 0c-3.2 0-4.3-.8-4.2-4.1.1-9.5 0-18.9-.1-28.4-.1-5.5-3.6-9.3-8.5-9.3-4.6.1-8.1 3.9-8.2 9.1-.1 9.3-.3 18.6-.1 27.9.1 3.6-.8 4.8-4.6 4.7-11.3-.3-22.5-.1-33.8-.1-8.9 0-11.4-2.5-11.5-11.2-.1-26.9-.2-53.9-.2-80.8 0-21.6 12.6-38.8 33-46 11.6-4 23.5-3.9 35.4-4M393.6 306.9c5.9 3.1 11.5 6.7 17.7 9 5.1 1.9 10.7 2.6 16.2 3.2 20.1 2.3 38.9-1.4 55.8-12.9 1.6 1.4 3.4.8 5.2.8 6 .1 12.1 0 18.1 1 23 3.9 43.7 18.6 44.5 45.7.9 28.9.2 57.8 0 86.7 0 5.2-3.7 8.6-8.7 8.7-12.4.1-24.8-.1-37.3.1-3 0-3.9-.9-3.9-3.9.1-9.5 0-18.9-.1-28.4-.1-5.6-3.4-9.3-8.4-9.4-4.6-.2-8.3 3.9-8.3 9.4-.1 9.3-.3 18.6-.1 27.9.1 3.4-1 4.4-4.4 4.4q-41.7-.15-83.4 0c-3.2 0-4.3-.8-4.2-4.1.1-9.5 0-18.9-.1-28.4-.1-5.6-3.5-9.2-8.5-9.3-4.4 0-8.1 3.9-8.2 9.1-.1 9-.5 18-.1 26.9.2 5-1.6 5.9-6.1 5.7-10.8-.3-21.6-.1-32.4-.1-8.8 0-11.4-2.5-11.5-11.3-.1-27.1-.2-54.2-.1-81.4.1-21.7 12.5-38.4 33-45.4 11.5-3.8 23.3-4.2 35.3-4"/><path d="M393.6 306.9c-11.9-.2-23.7.1-35.2 4.1-20.5 7-32.9 23.7-33 45.4-.1 27.1 0 54.2.1 81.4 0 8.8 2.7 11.3 11.5 11.3 10.8 0 21.6-.2 32.4.1 4.5.1 6.3-.7 6.1-5.7-.4-9-.1-18 .1-26.9.1-5.2 3.7-9.2 8.2-9.1 5 .1 8.5 3.7 8.5 9.3.1 9.5.3 18.9.1 28.4-.1 3.3 1.1 4.1 4.2 4.1q41.7-.15 83.4 0c3.4 0 4.5-1 4.4-4.4-.2-9.3 0-18.6.1-27.9.1-5.5 3.7-9.6 8.3-9.4 5 .2 8.3 3.8 8.4 9.4.1 9.5.2 18.9.1 28.4 0 3 .9 4 3.9 3.9 12.4-.1 24.8 0 37.3-.1 5 0 8.6-3.5 8.7-8.7.1-28.9.8-57.9 0-86.7-.8-27.1-21.5-41.8-44.5-45.7-6-1-12-.9-18.1-1-1.7 0-3.6.6-5.2-.8 5.8-3.7 10.8-8.5 15.4-13.6 1.1-1.2 2.1-2.3 4.1-2.1 26.7 3 48.1 14.1 59.9 39.6 3.7 8.1 5.5 16.7 5.5 25.6 0 28.3.1 56.5 0 84.8 0 14.9-10.7 25.6-25.7 25.6H334.2c-14.3 0-25.4-10.6-25.5-24.9-.2-28.7-.6-57.5.1-86.2.8-33.2 22.7-55 53-62.5 8.9-2.2 16.6-2.5 22.5 6.3 2 3.2 6 5.3 9.3 8M117 306.9c-11.9.1-23.8 0-35.3 4-20.5 7.2-33 24.4-33 46 0 26.9.1 53.9.2 80.8 0 8.7 2.6 11.2 11.5 11.2 11.3 0 22.6-.1 33.8.1 3.8.1 4.7-1.2 4.6-4.7-.2-9.3 0-18.6.1-27.9.1-5.2 3.6-9 8.2-9.1 4.9-.1 8.5 3.7 8.5 9.3.1 9.5.2 18.9.1 28.4-.1 3.3 1.1 4.1 4.2 4.1q41.7-.15 83.4 0c3.4 0 4.5-.9 4.5-4.4-.2-9.3.3-18.6 0-27.9-.2-5.4 4-9.4 8.5-9.5 4.9-.1 8.3 3.7 8.4 9.4.1 9.5.2 18.9.1 28.4 0 2.9.8 4 3.8 4 12.3-.2 24.5 0 36.8-.1 5.3 0 9.2-3.5 9.2-8.7.2-28.9 1-57.8-.1-86.7-1-27.3-20-40.8-43.8-45.6-7.9-1.6-15.9-1.1-23.9-1.1 5.5-5.3 11.9-9.5 16.6-15.6.9-1.1 2-.8 3.1-.7 37.4 3.3 65.8 29.3 65.3 68.7-.3 26.6 0 53.3-.1 79.9 0 16.4-10.5 26.8-27.1 26.8h-206C42.4 466 32 455.5 32 439.3v-81.9c-.1-37.9 27.3-61.7 60.3-66.4 5.3-.8 8.9.2 12.1 4.5 3.3 4.7 8.6 7.4 12.6 11.4"/><path d="M107.2 226.2c.3-9.7-1.2-19.4.4-29 5.1-30.7 33.8-51.9 69.5-42.9 23.8 6 39.3 26.8 39.3 51.3 0 14.3 0 28.7-.2 43-.4 29.6-24 52.8-53.7 52.7-31.8 0-54.7-22.4-55.3-54.2-.1-7 0-14 0-20.9m54.3 59.1c8.2-.2 15.4-2.7 21.5-7.9 4.5-3.9 5.1-9.7 1.7-14-3.6-4.6-9-5.8-13.8-2.2-6.2 4.6-11.8 4.7-18 .2-5-3.7-10.4-2.7-13.9 1.7-3.6 4.5-2.8 10.2 1.9 14.4 5.9 5.4 13 7.4 20.6 7.8m30.1-52.6q0 .15 0 0c1.7.1 3.5.2 5.2 0 5.9-.5 9.9-4.7 9.9-10.2s-4-9.5-10.1-9.8q-5.25-.3-10.5 0c-5.4.3-9.1 4-9.5 9.2s3.2 9.9 8.5 10.8c2.2.3 4.3 0 6.5 0m-59.4-20c-1.7 0-3.5-.1-5.2 0-6.1.3-9.9 4.1-10 9.8-.1 5.6 3.7 9.7 9.6 10.3 1.7.2 3.5 0 5.2.1 10.4.1 15-3.1 14.9-10.3 0-6.9-4.4-9.9-14.5-9.9"/><path d="M161.8 133.9c8.4-.1 16.1 5.3 18.5 12.6 1 2.9.3 4.1-2.7 3.5-10.4-2-20.8-1.9-31.2 0-3.1.5-4.3-.1-3-3.6 2.8-7.5 9.8-12.4 18.4-12.5M383.7 226.2c.3-9.7-1.2-19.4.4-29 5.1-30.7 33.8-51.9 69.5-42.9 23.8 6 39.3 26.8 39.3 51.3 0 14.3 0 28.7-.2 43-.4 29.6-24 52.8-53.7 52.7-31.8 0-54.7-22.4-55.3-54.2-.2-7 0-14 0-20.9m54.2 59.1c8.2-.2 15.4-2.7 21.5-7.9 4.5-3.9 5.1-9.7 1.7-14-3.6-4.6-9-5.8-13.8-2.2-6.2 4.6-11.8 4.7-18 .2-5-3.7-10.4-2.7-13.9 1.7-3.6 4.5-2.8 10.2 1.9 14.4 6 5.4 13.1 7.4 20.6 7.8m30.1-52.6q0 .15 0 0c1.7.1 3.5.2 5.2 0 5.9-.5 9.9-4.7 9.9-10.2s-4-9.5-10.1-9.8q-5.25-.3-10.5 0c-5.4.3-9.1 4-9.5 9.2s3.2 9.9 8.5 10.8c2.2.3 4.4 0 6.5 0m-59.3-20c-1.7 0-3.5-.1-5.2 0-6.1.3-9.9 4.1-10 9.8-.1 5.6 3.7 9.7 9.6 10.3 1.7.2 3.5 0 5.2.1 10.4.1 15-3.1 14.9-10.3 0-6.9-4.4-9.9-14.5-9.9"/><path d="M438.2 133.9c8.4-.1 16.1 5.3 18.5 12.6 1 2.9.3 4.1-2.7 3.5-10.4-2-20.8-1.9-31.2 0-3.1.5-4.3-.1-3-3.6 2.9-7.5 9.9-12.4 18.4-12.5"/></svg>