<svg xmlns="http://www.w3.org/2000/svg" xml:space="preserve" id="Capa_1" x="0" y="0" style="enable-background:new 0 0 600 600" version="1.1" viewBox="0 0 600 600"><style>.st0{fill:#f0e04b}.st1{fill:none;stroke:#fff;stroke-width:1.0682;stroke-miterlimit:10}.st2{stroke-width:1.1534}.st2,.st3{fill:none;stroke:#fff;stroke-miterlimit:10}.st4{fill:#020818}.st5{fill:#fff}.st6{fill:#9e9e9e}.st7{fill:none;stroke:#fff;stroke-width:.5;stroke-miterlimit:10}.st8{fill:#606060}.st9{clip-path:url(#SVGID_26_)}.st10{stroke-linecap:round}.st10,.st11,.st12,.st13,.st14{fill:none;stroke:#fff;stroke-miterlimit:10}.st11{stroke-width:2;stroke-linecap:round}.st12,.st13,.st14{stroke-width:1.2178}.st13,.st14{stroke-width:1.1071}.st14{stroke-width:2.7313}.st15{fill:#fcfcfc}.st16{fill:#0e0e0e}.st17{fill:#0c0c0c}.st18{fill:#0d0d0d}.st19{fill:#111}.st20{fill:#090909}.st21{fill:#f1f1f1}.st22{fill:#eaeaea}.st23{fill:#c78a5d}.st24{fill:#3a4755}.st25{fill:#3b4955}.st26{fill:#dee7ee}.st27{fill:#3b4959}.st28{fill:#ebf2f7}.st29{fill:#e4d398}.st30{fill:#3c4853}.st31{fill:#2e3a40}.st32{fill:#3f444a}.st33{fill:#f2d88e}.st34{fill:#f8e5a8}.st35{fill:#c7be93}.st36{fill:#e7debc}.st37{fill:#fcfcfd}.st38{fill:none;stroke:#606060;stroke-width:5;stroke-linejoin:round}.st39{opacity:.33;fill:#4ca7ab}.st40,.st41{fill:none;stroke:#000;stroke-width:.5;stroke-miterlimit:10}.st41{stroke-width:.9421}.st42{fill:#f9f4be}.st43{fill:#3c3d3e}.st44{fill:#f7f3be}.st45{fill:#33302b}.st46{fill:#2d3330}.st47{fill:#262422}.st48{fill:#4c4d4b}.st49{fill:#363535}.st50{fill:#272530}.st51{fill:#37352b}.st52{fill:#eecc53}.st53{fill:#88e56a}.st54{fill:#f8f8f9}.st55{fill:#89793a}.st56{fill:none;stroke:#000;stroke-width:2.5;stroke-miterlimit:10}.st57{fill:#b6b5b5}.st58{fill:#009aab}.st59{fill:#c34340}.st60{fill:#c44844}.st61,.st62{fill:none;stroke:#000;stroke-width:21;stroke-miterlimit:10}.st62{stroke-width:15}.st63{fill:#fdfcfc}.st64{fill:#fefefe}.st65{fill:#efe6a5}.st66{fill:#fcf9f9}.st67{fill:#fdfdfd}.st68{fill:#fefdfd}.st69{fill:#a74b50}.st70{fill:#a74c51}.st71{fill:#e8b3b0}.st72{fill:none;stroke:#a33434;stroke-width:4;stroke-linecap:round;stroke-miterlimit:10}.st73{fill:#a74b4f}.st74{fill:#a6494e}.st75{fill:#e9b3b1}.st76{fill:#fcfbfb}.st77,.st78,.st79{stroke:#000;stroke-miterlimit:10}.st78,.st79{stroke-width:.75}.st79{fill:none;stroke-width:4;stroke-linecap:round}.st80{fill:#d1e2fc}.st81{fill:#fcfcfe}.st82{fill:#777}.st83{fill:#1c227d}.st84{fill:#e28b80}.st85{fill:none;stroke:#000;stroke-width:17;stroke-miterlimit:10}</style><path d="M523.2 244c0 18.1.2 36.2 0 54.3-.6 41.6-31.7 80.5-72 91-13.1 3.4-26.3 3.4-39.6 3.3-6.6-.1-13.2.1-19.7.1h-74.6c-6.2 0-7.6-1.2-7.6-7.3-.1-33.6 0-67.1 0-100.7 0-3.4-.1-6.7-.1-10.1.1-6.4 1.3-7.7 7.6-7.7 25 0 50-.1 75 .1 4.2 0 5.5-1 5.5-5.4-.2-21.8-.1-43.5-.1-65.3 0-4.1 0-8.1.1-12.2 0-3.5 2-5.2 5.3-5.2 5.9 0 11.8.4 17.6.4 5.2 0 10.4-.4 15.5-.4h80c5.5 0 7 1.5 7 7 .2 19.4.2 38.7.1 58.1zM243.3 328.2c-8.2-6.2-13.6-12.1-21.7-18.3-12.2 4.4-27.8 11-53.8 20.1.3.7.5 1 .8 1.6 14.5-4.5 37.9-11.5 51-15.2 8.1 7.8 17.5 15.2 26 23.4 6.1-7.4 11.9-14.6 18-22.1 6.3 6.1 12.4 12 18.8 18.2-4 4.2-7.9 7.8-11.3 11.9-8.5 10.3-16.9 20.7-25.1 31.3-2 2.6-3.8 3.9-7 3.8-15.7-.2-31.3-.1-47-.1H83c-7.5 0-6.3.5-6.3-7.1V277h205.1v41.1c-6.9-5.2-13.1-10-19.8-15-5.8 8.9-12.8 16-18.7 25.1zM513.3 29.2v122.7c0 5.6 0 5.6-6.1 5.6H447c-11.6 0-23.3-.3-34.9-.3-3.2 0-4.1-1-4.1-3.8-.1-40.2-.4-80.4-.6-120.6 0-2.7.8-3.9 4-3.9 31.7.1 63.5.1 95.2.2 2 .1 4.1.1 6.7.1zM294 349.1v37.8c.1 6.2 2.8 10.7 8.5 13.4 1 .5 2.2 1.3 2.7 2.3 5.7 11.9 11.3 23.7 16.8 35.7 4.5 9.9 7.6 20.1 7.6 31.2.1 25.1-19.1 48.2-42.4 51.3-29.8 4-51.8-16.3-57.3-38.5-3.7-14.8-2-29.3 2.5-43.5 9.5-30.6 27.5-55.9 49.2-78.9 3.6-3.9 7-8 10.4-12.1.6.3 1.3.8 2 1.3zm-11.9 46.2c-14.6 21.5-3.5 59.1 13.5 67.2-9.7-21.2-13.4-43.3-13.5-67.2zM352 425.3c2.1 6.7 4.3 13.4 6.4 20.1l3.9 12.3c1.6 5.3.5 9.9-3.6 13.8-.8.7-1.6 1.7-1.7 2.7-1.6 11.7-3.2 23.4-4.6 35.2-1.2 9.7-1 19.3 2 28.8 6.8 21.5 29.5 36 50.4 32.3 26.6-4.8 40-28.1 38.6-48.7-.9-13.6-6.3-25.6-14-36.6-16.5-23.6-38.8-40.3-63.7-54.1-4.2-2.3-8.2-5-12.2-7.5-.5.5-1 1.1-1.5 1.7zm22.9 36.3c18.4 14.4 19.1 49.7 6.8 61.2 2.5-20.8-.4-40.7-6.8-61.2z"/></svg>