<svg xmlns="http://www.w3.org/2000/svg" xml:space="preserve" id="Capa_1" x="0" y="0" style="enable-background:new 0 0 600 600" version="1.1" viewBox="0 0 600 600"><style>.st0{fill:#f0e04b}.st1{fill:none;stroke:#fff;stroke-width:1.0682;stroke-miterlimit:10}.st2{stroke-width:1.1534}.st2,.st3{fill:none;stroke:#fff;stroke-miterlimit:10}.st4{fill:#020818}.st5{fill:#fff}.st6{fill:#9e9e9e}.st7{fill:none;stroke:#fff;stroke-width:.5;stroke-miterlimit:10}.st8{fill:#606060}.st9{clip-path:url(#SVGID_26_)}.st10{stroke-linecap:round}.st10,.st11,.st12,.st13,.st14{fill:none;stroke:#fff;stroke-miterlimit:10}.st11{stroke-width:2;stroke-linecap:round}.st12,.st13,.st14{stroke-width:1.2178}.st13,.st14{stroke-width:1.1071}.st14{stroke-width:2.7313}.st15{fill:#fcfcfc}.st16{fill:#0e0e0e}.st17{fill:#0c0c0c}.st18{fill:#0d0d0d}.st19{fill:#111}.st20{fill:#090909}.st21{fill:#f1f1f1}.st22{fill:#eaeaea}.st23{fill:#c78a5d}.st24{fill:#3a4755}.st25{fill:#3b4955}.st26{fill:#dee7ee}.st27{fill:#3b4959}.st28{fill:#ebf2f7}.st29{fill:#e4d398}.st30{fill:#3c4853}.st31{fill:#2e3a40}.st32{fill:#3f444a}.st33{fill:#f2d88e}.st34{fill:#f8e5a8}.st35{fill:#c7be93}.st36{fill:#e7debc}.st37{fill:#fcfcfd}.st38{fill:none;stroke:#606060;stroke-width:5;stroke-linejoin:round}.st39{opacity:.33;fill:#4ca7ab}.st40,.st41{fill:none;stroke:#000;stroke-width:.5;stroke-miterlimit:10}.st41{stroke-width:.9421}.st42{fill:#f9f4be}.st43{fill:#3c3d3e}.st44{fill:#f7f3be}.st45{fill:#33302b}.st46{fill:#2d3330}.st47{fill:#262422}.st48{fill:#4c4d4b}.st49{fill:#363535}.st50{fill:#272530}.st51{fill:#37352b}.st52{fill:#eecc53}.st53{fill:#88e56a}.st54{fill:#f8f8f9}.st55{fill:#89793a}.st56{fill:none;stroke:#000;stroke-width:2.5;stroke-miterlimit:10}.st57{fill:#b6b5b5}.st58{fill:#009aab}.st59{fill:#c34340}.st60{fill:#c44844}.st61,.st62{fill:none;stroke:#000;stroke-width:21;stroke-miterlimit:10}.st62{stroke-width:15}.st63{fill:#fdfcfc}.st64{fill:#fefefe}.st65{fill:#efe6a5}.st66{fill:#fcf9f9}.st67{fill:#fdfdfd}.st68{fill:#fefdfd}.st69{fill:#a74b50}.st70{fill:#a74c51}.st71{fill:#e8b3b0}.st72{fill:none;stroke:#a33434;stroke-width:4;stroke-linecap:round;stroke-miterlimit:10}.st73{fill:#a74b4f}.st74{fill:#a6494e}.st75{fill:#e9b3b1}.st76{fill:#fcfbfb}.st77,.st78,.st79{stroke:#000;stroke-miterlimit:10}.st78,.st79{stroke-width:.75}.st79{fill:none;stroke-width:4;stroke-linecap:round}.st80{fill:#d1e2fc}.st81{fill:#fcfcfe}.st82{fill:#777}.st83{fill:#1c227d}.st84{fill:#e28b80}.st85{fill:none;stroke:#000;stroke-width:17;stroke-miterlimit:10}</style><path d="M374.7 340.4c6 1.9 11.9 3.3 17.4 5.6 31.5 13.6 50.3 37.3 54.4 71.4 1.8 15.2.9 30.8.9 46.2 0 6.6 1.6 12.4 5.4 17.7 4 5.7 7.8 11.6 11.7 17.4 7.5 11 9 22.7 2.8 34.7-6.3 12.3-17 17.9-30.6 17.9H269.9c-13.5 0-24.1-5.7-30.3-17.8-6-11.7-4.9-23.4 2.5-34.4 4.4-6.4 8.5-13 12.9-19.4 3.1-4.5 4.5-9.4 4.5-14.9 0-13.4-.2-26.9.1-40.3.8-41.7 33.4-78.2 74.7-83.9 7.8-1.1 7.6-1.1 8.4-8.8 1.5-14.7 5.1-28.8 14.2-40.9 9-11.8 16-12.7 27.7-3.8 5.8 4.4 9.8 9.7 10.1 17.5.1 2.2 2.3 4.7 4.2 6.2 2.6 2.1 5.8 3.5 8.9 5.1 2.7 1.4 4.7 3.1 4.2 6.4-.5 3.4-2.9 4.8-6.2 5-11 .7-20.6 5-29.5 11.2-.4.3-.9.6-1.3 1 0 .1 0 .4-.3.9z"/><path d="M154.6 316.1h178.2c-.7 4-1.2 7.7-2 11.4-.1.7-1.1 1.5-1.8 1.7-12.7 2.4-24.3 7.3-35.6 14.2-2.6-6-6.4-10.7-12.1-13.5-16.1-7.9-34 3.7-34.2 22.2-.2 15 0 30 0 45 0 22.3-.1 44.5 0 66.8 0 4.3-1 7.9-3.6 11.3-2.4 3.1-4.4 6.5-7.6 9.7v-4.7c0-29.4.1-58.7.1-88.1 0-13.7 0-27.4-.1-41.1-.1-12.2-9.5-22.4-21.3-23.5-12.1-1.2-23 6.7-25.6 18.7-.4 2-.5 4.2-.5 6.3v139.1c0 18.3 16.1 29.3 33.2 22.8.6-.2 1.2-.4 2.4-.7-1.4 14.5 3.3 26.7 13.4 37.3-1.6.2-2.5.4-3.5.4-17 0-34 .1-51 0-10.5-.1-17.3-6.2-18.4-16.7-.7-6.9-.9-13.9-1.2-20.9-1.6-35.2-3.2-70.5-4.8-105.8-1.3-29.2-2.7-58.4-4.1-87.6 0-1.3.1-2.6.1-4.3zM224.2 256.8V240c.1-10.9 6.6-18.1 17.5-18.3 19.5-.3 39-.3 58.5 0 11.1.2 17.6 7.4 17.7 18.6 0 4.1.2 8.2-.1 12.2-.3 3.6 1.2 4.4 4.6 4.4 18.6-.1 37.1-.1 55.7-.1 16.2 0 22.3 6.2 22.3 22.5v5.4c-1.2-.9-1.8-1.4-2.5-1.9-5.7-3.9-11.2-8.2-17.1-11.7-8-4.7-15.7-2.9-22.9 2.4-9.2 6.8-15.4 15.8-19.6 26.2-1.2 2.9-2.5 4.2-5.9 4.2-59.9-.1-119.9-.1-179.8-.1-1.7 0-3.4.1-5.1-.1-3.5-.3-5.8-2.3-5.8-5.8-.1-8.2-.4-16.4.2-24.5.8-10.4 8.3-16.6 19.4-16.6 19-.1 37.9 0 56.9 0h6zm82.2-.2c0-6.3.3-12.4-.1-18.3-.2-3.2-2.6-5.1-6-5.1h-58.8c-3.1 0-5.6 1.7-5.8 4.8-.4 6.1-.1 12.2-.1 18.6h70.8z"/><path d="M200.5 421.8v-70.3c0-5.6 3.4-10.1 8.5-11.5 4.9-1.4 10.1.4 12.7 4.9 1.3 2.3 2.1 5.2 2.1 7.8.1 46.2.1 92.4.1 138.6 0 6.8-3.8 11.8-9.5 12.7-6.1 1-11.6-2.2-13.3-7.9-.5-1.7-.5-3.6-.5-5.5-.1-23-.1-45.9-.1-68.8zM259.8 377.1c0-8.9-.3-18.7.1-28.5.2-5 5.5-8.9 10.8-9 5.4-.1 10.8 3.9 11.5 8.8.2 1.3-.2 3.2-1.1 4.2-7.1 8.3-14.4 16.5-21.3 24.5zM398.7 180.9c-9.7 13.2-21.9 19.7-38 19.4 2.7-20 3.6-39.3-9.8-56.2-8.7 18.9-23.1 30.8-42.5 37-.5-.6-.9-.9-1-1.2-3.2-15.5-12.8-26.8-24.2-37-6.3-5.7-12.9-11.3-18.8-17.5-3.8-4-6.6-9-10.1-13.9-2.2 22.4-9.9 42.4-25.9 59.2-10.9-13.2-22.3-25-37.5-32.3-4.4 9-10.6 43.1-11.4 63.6-12.9-3.1-25.6-6.2-35.7-17.2-.8 3.9-1.9 7-2.2 10.1-1.1 12.9.1 25.5 4.6 37.7.5 1.5 1.1 3 1.2 4.5.2 3.2-1.1 5.7-4 7.1-2.9 1.4-5.4.3-7.5-1.8-7-7.2-10.3-16.2-11.7-25.8-3.6-25.4.6-49.8 10-73.5.6-1.5 1.5-3 2.5-5 6.6 14.5 12.9 28.4 26.8 38.2-6.2-33.5 1.2-62 25.7-86.1 4.7 17.6 13.7 31.3 30 41.3-3.4-42.1 14.5-72.3 49.2-94.4-.3 5.1-.7 9.4-.9 13.7-.9 16.4 4.2 30.8 13.8 43.9 7.7 10.6 15.6 21.2 22.8 32.2 3.6 5.6 5.9 12 9.1 18.8 1-1.8 2.2-3.3 2.7-5 2.3-8.4 4.4-16.8 6.6-25.2 3.7-14.6 10.4-27.5 22.1-37.4 1.5-1.3 3.2-2.3 4.8-3.4 1-.6 2.1-1 3.6-1.8-.5 3.2-1.2 5.9-1.4 8.7-.8 9.3 2.3 17.7 6.1 25.8 3.7 8 7.9 15.8 11.7 23.7 6.1 12.8 11.1 25.9 10.7 41 1.1-1.4 2.7-2.7 3.3-4.4 2.4-6.4 4.4-12.9 6.6-19.3 1.8-5.3 3-10.9 5.5-15.9 2.5-5.1 7.4-8 12.7-9.8.3.4.6.6.5.8-2.3 14.3 1.1 27.9 4.1 41.8 2.4 11.3 4.4 22.8 5.1 34.3 1 15.3-4.8 28.9-13.4 41.3-2.8 4-6.4 5-9.8 3-3.4-2-4.8-6.3-3.1-10.4.9-2.2 2.3-4.1 3.4-6.2 6.7-13.3 8.5-27.3 4.9-41.8.1-1.3-.4-2.5-1.2-4.6z"/></svg>