<svg xmlns="http://www.w3.org/2000/svg" xml:space="preserve" viewBox="0 0 600 600"><path d="M298.3 481.8c-.8 3.3-2.3 6.6-2.3 10-.2 21.9 0 43.8-.1 65.7-.1 10.7-7.4 16-17.2 13.2-5.3-1.5-6.5-5-6.6-9.7 0-22.6-.1-45.1-.1-67.7v-7.2c0-13.6 0-13.4-13-17.1-5.6-1.6-8.8-5.9-8.9-11.6-.2-20.6-1.1-41.3.4-61.8 2.3-31.5 32.5-50 60.3-43.8 23.1 5.1 38.6 22.6 40.1 47.4 1.1 18.6.4 37.3.3 56 0 8.3-4.2 12.7-12.4 14.1-9.2 1.5-10.5 3-10.5 12.2 0 25.4.1 50.8-.1 76.1 0 10.2-2.8 13.7-10.3 14-7.9.3-13-4.9-13.1-14.5-.2-21.5 0-43-.2-64.4 0-3.7-1.7-7.4-2.6-11.1-1.2.2-2.4.2-3.7.2"/><path d="M210.5 426.5c-6.7 2.5-7.5 6.7-7.5 11.6.1 21.5.1 43 .1 64.5 0 11.1-5 15.6-15.4 13-2.6-.7-5.5-4-6.4-6.6-1.2-3.8-.7-8.1-.7-12.3v-70.3c0-8.7-1.7-10.6-10.2-11.9-9.5-1.5-12.5-4.6-12.6-14.1-.2-18.4-.7-36.9.1-55.3 1.5-32.2 30-55.9 63.3-47.6 18.1 4.6 31.2 16.6 35.7 36.5 2.5 10.9 1.7 19-6.2 27.8-9.3 10.4-14.2 23.3-14 38.1.5 34.3.2 68.6.1 102.9 0 9.8-3 13-11.2 13.4-8.4.4-13.2-4.8-13.2-14 0-21.5.2-43 0-64.5 0-3.5-1.2-7.1-1.9-11.2M389.8 427.1c-.5 3.5-1.4 7-1.5 10.5-.2 21.7 0 43.4-.1 65.1 0 8-2.7 11.7-8.9 13.2-8.7 2.1-15.7-2.9-15.9-12-.3-13.7-.1-27.3-.1-41 0-22.1-.1-44.3.1-66.4.2-14.8-6.9-26.3-15.3-37.6-2.9-3.9-5.5-9.2-5.4-13.8.3-33.3 29.1-54.7 60.6-48.1 21.9 4.6 37.6 21.1 39.3 46 1.3 19.2.4 38.6.2 57.9-.1 9.2-2.9 12.1-12.3 13.7-9.6 1.7-10.9 3.2-10.9 12.7.1 25.2.2 50.3.2 75.5 0 11.4-4.3 15.3-14.4 13.2-5.7-1.2-8.2-5.1-8.2-13.6 0-14.1.1-28.2.1-42.3 0-8 .4-16.1-.2-24.1-.2-3.3-2.6-6.5-4-9.7-1 .3-2.1.5-3.3.8"/><path d="M88.9 409.3c0-12.6.1-25.2 0-37.8-.1-9.3-2-11.3-11.2-12.1-8.3-.8-11.4-3.7-11.4-12-.1-20.6-1.1-41.3.5-61.8 1.3-16.8 10-30.1 25.9-38.5 10.3-5.4 20.7-6.1 31.5-5.4 17.3 1.2 36.6 17.4 40.3 34.7 1 4.4 1.9 9.1 1.7 13.5-.2 4.1-.8 9.5-3.4 12.1-14.4 14.2-18.2 31.7-18 51 .3 31.2.4 62.5.6 93.7.1 8.2-3.1 13.1-9.2 14.5-8.9 2-15.1-2.9-15.1-12.6-.2-21.7-.1-43.4-.1-65.1 0-2.2.2-4.5-.5-6.4-.6-1.8-2.3-3.2-3.5-4.8-1.8 1.4-4.2 2.4-5.2 4.3s-.9 4.6-.9 7c-.1 21.9 0 43.8-.1 65.8 0 5.2 0 10.6-7 12.1-9.4 2-14.4-1.5-14.7-11.8-.4-13.5-.1-27-.2-40.4q.15 0 0 0M454.5 395.6c0-19.9.3-39.9-.1-59.8-.2-12.8-7.4-22.6-15-32.2-2.3-2.9-4.3-6.7-4.6-10.2-1.9-18.8 5.9-34 21-44 23.9-15.9 60.6-8.6 73.2 19.3 3.5 7.8 5.2 15.4 5.2 23.8-.1 18.2 0 36.5 0 54.7 0 9.4-1.6 11.1-10.6 12-9.9 1-11.9 3.2-11.9 12.9 0 24.1.1 48.2.1 72.3 0 2.6 0 5.2-.4 7.8-1.2 7.7-4.3 10-12 9.5-7.3-.4-9.7-2.7-9.8-10.8-.2-21-.1-42.1 0-63.1v-5.2c0-4.6-.4-9.5-6.1-9.5-1.4 0-3.9 6-3.9 9.3-.4 21.7-.2 43.4-.2 65.1 0 11-2.7 14.2-11.4 14.4-7.9.2-12.8-5.1-12.9-14.6-.2-17.1-.1-34.3-.1-51.4-.2-.3-.3-.3-.5-.3M68.5 245.8c-.8-3.4-2.1-6.6-2.1-9.8-.2-19.9-1.3-40 .3-59.8 1.3-16.4 9.5-29.7 24.9-38.4 12.4-7 25.1-6.5 37.8-4.7 14.5 2 32.1 18.7 35.2 33.9.8 4 1.2 8.1 1.7 12.2 1.2 10.4-5.5 16.8-12.3 22.8-3 2.7-6.4 2.2-7.7-2.7-5.2-19.4-37.3-29-54.7-8.1-8.6 10.3-7.9 21.9-8 33.7-.1 13-1.7 15.6-15.1 20.9M532 245.8c-11.2-3.6-15.4-10.3-15-20.6.3-6.9-.5-13.8-1.2-20.7-1.1-11.8-16.9-24.6-30-25.6-13-1-25.8 7.1-31.7 20.5-.7 1.5-1.6 2.9-2.4 4.3-11-3.3-17.2-13-17.3-23.8-.2-15.6 6.4-27.4 17.7-37.4 12.3-11 39.1-14 53.8-6.6 19.7 9.9 28.4 25.8 28.2 47.4-.1 17.1.1 34.2-.1 51.4 0 3.8-1.3 7.4-2 11.1M245 260.2c-2.7-2.9-5.3-5-6.7-7.6-7.2-12.9-18.1-19.3-32.6-18.1-14 1.2-23.4 9-28.8 22-.8 1.8-2.1 3.4-3.4 5.6-5.4-7.6-11.1-14-14.8-21.3-1.8-3.5-.8-9 .1-13.3 5-23.2 23.6-40.9 49-41 20.7 0 34.9 9.7 45.8 25.8 7.7 11.3 6.2 28.2-2.5 38.9-2.1 2.4-3.7 5.3-6.1 9M335.6 316.6c-2-3.2-3.8-6-5.5-8.8-9.1-15.6-22-21.2-39.6-16.9-7.9 1.9-14 6.5-18.2 13.6-2.3 4-4.9 7.8-8 12.7-8.3-13.5-18.8-23.6-12.1-40.9 8.2-21.2 24.7-34.2 47.6-34.9 20.3-.6 34.6 9.3 44.3 25.5 4.4 7.3 5 16.9 7 25.5.3 1.3-.1 3.2-.9 4.3-4.4 6.4-9.1 12.7-14.6 19.9M426.6 153.1c-1.4-3-2.4-5.1-3.2-7.2-5.8-14.5-26-27.2-41.8-19.7-8.7 4.1-15.5 8.9-19.6 17.8-2.5 5.4-6.2 4.4-10.5.6-12.4-11-10-24.2-6.1-37.2 2.8-9.4 10.1-16.4 18.1-22.3 14.3-10.5 30.7-10 46.2-5.8 12.6 3.4 23 12.1 27.6 25.4 2.4 7.1 3.9 14.5 5.6 21.8.4 1.8.1 4.2-.9 5.6-4.6 6.8-9.6 13.2-15.4 21M173.5 152.4c-5.3-7.1-10.8-13-14.3-19.9-2-3.8-1.7-9.5-.7-13.9 5.4-23 20.5-41.3 47.4-41.6 15.2-.2 28.1 3.6 38.9 14.4 10.6 10.5 13.8 23.8 13.9 37.9 0 3.3-3.3 6.8-5.4 10-1.1 1.8-3 3.1-4.2 4.9-4 5.9-7.1 6-10.5-.5-4.5-8.5-10.6-14.2-19.9-17.4-13.1-4.6-27.1-.9-36.1 11.2-3.5 4.5-6 9.7-9.1 14.9M427.1 262.1c-3.3-5.5-5.7-10.7-9.1-15.2-13.7-18.2-43.8-16.9-54.8 4.8-3.9 7.8-6.4 7-12.5 1.2-10.8-10.2-8.9-21.7-5.6-33.6 3.2-11.7 11.5-19.5 21.2-26.1 11.2-7.7 24-8.2 36.3-5.8 15.7 3.1 29.1 11.2 34.9 27.6 2.4 6.6 4.5 13.6 5.2 20.5.4 3.7-2.2 8.1-4.3 11.6-3.1 4.9-7 9.3-11.3 15M335.8 208c-7.4-16.4-17.3-28.6-35.3-28.8-17.9-.2-28.1 12-35.6 27.7-5.4-7.7-9.9-13.6-13.9-19.9-1.1-1.8-1.3-4.6-1.1-6.9 1.6-21.8 11.8-38.7 32.7-45.6 26.3-8.7 54.3.9 64.8 30.1.7 1.8 1.4 3.6 2 5.5 2.6 9.1 3.6 17.6-5.1 24.7-3.3 2.8-4.9 7.5-8.5 13.2M483.1 121.6c-10.9 1.4-18.6-8.2-18.2-19.4.4-12.5 7-18.9 20.4-18.8 11.7.1 18.6 7.2 18.4 19.3-.2 12-7.8 18.9-20.6 18.9"/><path d="M484.7 231c-13.2.2-19.6-6-19.7-19.1-.1-12.1 6.5-18.4 18.7-19.1 10.5-.6 20.4 8.8 20.1 19.1-.4 12.3-6.5 18.9-19.1 19.1M392.2 285.8c-12.3.5-18.3-6.1-19.4-19.5-.7-8.6 7.5-19.3 18.2-18.9 11 .4 21.1 8.6 21.4 18.5.4 11.5-7.9 19.7-20.2 19.9M116.9 121.6c-11.6.1-20.1-7.8-20.3-18.7-.2-11.4 7.9-19.4 19.8-19.6 12.4-.1 18.9 6.6 19 19.3 0 12.6-6.1 19-18.5 19M391.7 67c-11.4 1.5-18.9-10.3-18.8-19.5.1-11.8 7.6-18.8 20.1-18.8 11.6 0 19.4 7.7 19.3 19.2-.1 10.2-9.8 19.1-20.6 19.1M116.1 231c-11.9-.1-19.4-7.5-19.4-18.9 0-11.3 8.7-19.3 20.8-19.2 11.3.1 17.9 7.3 18 19.2.1 10.8-6.3 20.2-19.4 18.9M392.1 176.4c-13.3.9-18.8-9.4-19.3-19.6-.5-10.4 8.7-18.6 19.8-18.6 11.2 0 20 8.6 19.9 19.3-.2 10.7-9.1 18.9-20.4 18.9M208.9 67c-11-.1-21-9.4-20.5-19.9.4-9 7.2-19.4 20.6-18.8 11.1.5 18.9 8 18.7 19.1-.1 8.5-6.8 21.1-18.8 19.6M300.2 340.5c-13.4.4-18.4-6.6-19.5-19.2-.9-10 9.9-19.3 20.3-19.1 9.9.2 19.4 10 19.3 19.8-.3 12.4-7.2 18.7-20.1 18.5M208.3 176.3c-11 0-20.2-8.7-20.2-19.1 0-10.1 9.6-19 20.5-19 11.1 0 19.4 8.1 19.4 19-.1 11.6-7.8 19.1-19.7 19.1M208.6 285.8c-12.2-.1-20.2-7.5-20.2-18.7 0-10.8 9.5-19.6 20.9-19.5 10.3.1 18.8 8.9 18.5 19.3-.3 12.1-7.2 18.9-19.2 18.9M300.6 231c-14.5 1.1-19.6-10.3-20-18.9-.5-10.3 9.3-19.4 20-19.3 10.4.1 19.2 8.6 19.4 18.6.1 11.4-8 19.6-19.4 19.6M299.8 121.6c-10.6-.1-19.9-8.7-19.1-19.3.7-9.6 6.5-19.6 19.4-19 11.3.5 20.2 8.8 20 19.4-.2 10.8-9 19-20.3 18.9"/></svg>