<svg xmlns="http://www.w3.org/2000/svg" xml:space="preserve" viewBox="0 0 600 600"><path d="M403.6 340.7c2.3-8.8 3.9-17.9 3.9-27.4-.2-59.3-48.2-107.3-107.4-107.5s-107.8 48.5-107.6 107.8 48.2 107.3 107.4 107.5c26.1.1 49.7-9.7 68.4-25.3 5.7-22 18.2-41 35.3-55.1m-187.2-27.2c0-46.1 37.3-83.4 83.6-83.5 46.2-.1 83.7 37.2 83.7 83.3.1 46.1-37.3 83.4-83.6 83.5-46.2.1-83.7-37.2-83.7-83.3M558.6 84c5.5 0 7 1.3 6.9 6.8-.4 17.4-.1 34.8-.1 52.2 0 12.2-4.9 17-17.2 17H51.3c-11.6 0-16.6-5-16.7-16.5 0-17.8.2-35.5-.1-53.3-.1-5.1 1.3-6.3 6.3-6.3 86.6.3 431.8.3 517.8.1"/><path d="M300.1 365.7c28.8 0 52.6-23.9 52.3-52.4-.3-28.9-23.7-52.2-52.6-52.2-28.8 0-52.5 23.9-52.3 52.4.2 29 23.7 52.3 52.6 52.2"/><path d="M335.6 313.7c-.2 19.8-16.5 35.9-36 35.6-19.8-.3-35.6-16.6-35.3-36.3.3-19.6 16.3-35.4 35.8-35.4 19.6.1 35.7 16.4 35.5 36.1"/><path d="M364.5 422.6c0-5.7.7-11.2 1.7-16.6.5-3.5 1.3-6.9 2.1-10.2-18.7 15.6-42.4 25.4-68.4 25.3-59.2-.1-107.2-48.2-107.4-107.5s48.4-108 107.6-107.8S407.3 254 407.5 313.3c0 9.5-1.6 18.6-3.9 27.4 4.5-3.7 9.2-7.1 14.3-10 .5-.3 1-.5 1.5-.8 4.6-2.6 9.3-5 14.3-6.9 2.1-.8 4.2-1.3 6.4-2 3.8-1.2 7.5-2.5 11.4-3.2 6.4-1.3 13-2 19.8-2 5.8 0 11.3.8 16.8 1.7 7.1-17.7 11.9-36.4 13.8-56.2 2.3-24.4.6-49 1.2-73.4.1-4.8-1.2-5.8-5.9-5.8-65.6.2-328.5.2-394.3 0-5.1 0-6.1 1.6-6 6.2.3 15.9.3 31.8.1 47.7-.5 41.8 9.7 80.6 32.5 115.8 19.5 30.2 45.3 53.7 77.2 70.2 25.8 13.4 53.4 20.8 82.5 22.3 25.1 1.4 49.6-1.7 73.4-9.5 1-.3 2-.8 3-1.2-.4-3.7-1.1-7.2-1.1-11m78.7-192.7c6.4 0 12 5.5 12.1 11.9.1 6.2-5.7 12-12 12.1-6.3 0-12-5.6-12.1-11.9.1-6.5 5.7-12.1 12-12.1"/><path d="M476.4 339.5c-48.7 0-88.2 39.5-88.2 88.2s39.5 88.2 88.2 88.2 88.2-39.5 88.2-88.2-39.4-88.2-88.2-88.2m0 147.7c-32.8 0-59.4-26.6-59.4-59.4s26.6-59.4 59.4-59.4 59.4 26.6 59.4 59.4-26.6 59.4-59.4 59.4"/><path d="m413.208 384.396 19.8-19.8 106.63 106.632-19.799 19.798z"/></svg>