<svg xmlns="http://www.w3.org/2000/svg" xml:space="preserve" id="Capa_1" x="0" y="0" style="enable-background:new 0 0 600 600" version="1.1" viewBox="0 0 600 600"><style>.st0{fill:#f0e04b}.st1{fill:none;stroke:#fff;stroke-width:1.0682;stroke-miterlimit:10}.st2{stroke-width:1.1534}.st2,.st3{fill:none;stroke:#fff;stroke-miterlimit:10}.st4{fill:#020818}.st5{fill:#fff}.st6{fill:#9e9e9e}.st7{fill:none;stroke:#fff;stroke-width:.5;stroke-miterlimit:10}.st8{fill:#606060}.st9{clip-path:url(#SVGID_26_)}.st10{stroke-linecap:round}.st10,.st11,.st12,.st13,.st14{fill:none;stroke:#fff;stroke-miterlimit:10}.st11{stroke-width:2;stroke-linecap:round}.st12,.st13,.st14{stroke-width:1.2178}.st13,.st14{stroke-width:1.1071}.st14{stroke-width:2.7313}.st15{fill:#fcfcfc}.st16{fill:#0e0e0e}.st17{fill:#0c0c0c}.st18{fill:#0d0d0d}.st19{fill:#111}.st20{fill:#090909}.st21{fill:#f1f1f1}.st22{fill:#eaeaea}.st23{fill:#c78a5d}.st24{fill:#3a4755}.st25{fill:#3b4955}.st26{fill:#dee7ee}.st27{fill:#3b4959}.st28{fill:#ebf2f7}.st29{fill:#e4d398}.st30{fill:#3c4853}.st31{fill:#2e3a40}.st32{fill:#3f444a}.st33{fill:#f2d88e}.st34{fill:#f8e5a8}.st35{fill:#c7be93}.st36{fill:#e7debc}.st37{fill:#fcfcfd}.st38{fill:none;stroke:#606060;stroke-width:5;stroke-linejoin:round}.st39{opacity:.33;fill:#4ca7ab}.st40,.st41{fill:none;stroke:#000;stroke-width:.5;stroke-miterlimit:10}.st41{stroke-width:.9421}.st42{fill:#f9f4be}.st43{fill:#3c3d3e}.st44{fill:#f7f3be}.st45{fill:#33302b}.st46{fill:#2d3330}.st47{fill:#262422}.st48{fill:#4c4d4b}.st49{fill:#363535}.st50{fill:#272530}.st51{fill:#37352b}.st52{fill:#eecc53}.st53{fill:#88e56a}.st54{fill:#f8f8f9}.st55{fill:#89793a}.st56{fill:none;stroke:#000;stroke-width:2.5;stroke-miterlimit:10}.st57{fill:#b6b5b5}.st58{fill:#009aab}.st59{fill:#c34340}.st60{fill:#c44844}.st61,.st62{fill:none;stroke:#000;stroke-width:21;stroke-miterlimit:10}.st62{stroke-width:15}.st63{fill:#fdfcfc}.st64{fill:#fefefe}.st65{fill:#efe6a5}.st66{fill:#fcf9f9}.st67{fill:#fdfdfd}.st68{fill:#fefdfd}.st69{fill:#a74b50}.st70{fill:#a74c51}.st71{fill:#e8b3b0}.st72{fill:none;stroke:#a33434;stroke-width:4;stroke-linecap:round;stroke-miterlimit:10}.st73{fill:#a74b4f}.st74{fill:#a6494e}.st75{fill:#e9b3b1}.st76{fill:#fcfbfb}.st77,.st78,.st79{stroke:#000;stroke-miterlimit:10}.st78,.st79{stroke-width:.75}.st79{fill:none;stroke-width:4;stroke-linecap:round}.st80{fill:#d1e2fc}.st81{fill:#fcfcfe}.st82{fill:#777}.st83{fill:#1c227d}.st84{fill:#e28b80}.st85{fill:none;stroke:#000;stroke-width:17;stroke-miterlimit:10}</style><path d="M300 534.1c-62.5 0-121.3-24.4-165.5-68.6-44.2-44.2-68.6-103-68.6-165.5s24.4-121.3 68.6-165.5c44.2-44.2 103-68.6 165.5-68.6s121.3 24.4 165.5 68.6c44.2 44.2 68.6 103 68.6 165.5s-24.4 121.3-68.6 165.5c-44.2 44.3-103 68.6-165.5 68.6zm0-451.2C180.3 82.9 82.9 180.3 82.9 300S180.3 517.1 300 517.1 517.1 419.7 517.1 300 419.7 82.9 300 82.9z"/><path d="m136.29 148.377 12.02-12.02 144.956 144.955-12.02 12.02zM414.695 426.777l12.021-12.021 38.75 38.749-12.021 12.02zM413.7 267.4H302.5c18.5 6 31.9 23.8 31.9 44.9 0 17-8.7 31.8-21.8 40.1 12.9 6.8 22.3 19.6 24.5 34.9h99V267.8c-2.8-.2-20.6-.4-22.4-.4zM357.4 196.4h-52.9c-11.4 0-17-5.7-16.9-17.2v-13.6c0-13.4 5.2-18.6 18.5-18.7h100c2.5 0 4.9-.1 7.4.1 8.4.6 14 6.3 14.2 14.8.2 6.4.3 12.9.1 19.3-.2 9.6-6.3 15.4-15.9 15.4-18.1-.1-36.3-.1-54.5-.1zM407.6 207.1c1.4 10.2 6.6 16.8 14.5 22 9.5 6.2 14.8 15.2 15.4 27.2H278.2c-.3-10 4.1-17.6 10.9-24 2.2-2.1 5.2-3.3 7.2-5.5 3.7-4.2 8.3-8.4 9.8-13.4 1.8-5.8 4.5-6.5 9.6-6.5 28.2.2 56.4.1 84.7.1 2.2.1 4.4.1 7.2.1z"/><path d="M404.7 397.9c-22.4.1-44.8.1-67.1.1-.8 11.5-5.7 21.8-13.1 29.5h33.6c21.2 0 42.5 0 63.7-.1 7.4 0 11.4-2.4 13.7-7.2.4-.9.7-2 .7-3v-19.4c-4.7.1-26.5.1-31.5.1zM277.4 351.1c-7.7-.5-17.1.9-24 1.7-.9.1-2.2-.3-2.8-.9-10.7-10.6-17.6-17.3-28.5-28.2-1.2-1.1-1.1-1.9 0-3 12-11.9 23.8-24.1 36.1-35.8 11-10.5 24.3-13.5 38.7-9.2 14.7 4.3 24.2 14.5 27.6 29.5 3.2 14.1-.5 26.5-10.5 37-3.7 3.9-5.5 5.5-9.3 9.4-1.1 1.1-2.9 2.4-4.6 2.2-7.7-1.2-13.8-2.2-22.7-2.7zM228.9 425.6c-3.6 2.5-7.6 4.1-11.9 5-22.8 5-44-8.7-48.3-31.5-2.5-13.5 1.2-25.5 10.8-35.4 11.6-11.8 22.6-21.3 34.2-33 1.4-1.4 2.2-1.3 3.5.1 8.7 8.9 15.4 15.5 24.2 24.3.5.5.8 1 1 1.3-4.8 2.5-11.5 6.7-15 9.9-5.1 4.8-6.7 6.2-7.6 13.6-.3 2.1-.1 4.3-.1 6.5 0 6.7.2 13.4-.1 20.1-.2 6.8 2.4 12.3 7.3 16.8l1.8 1.8c.1 0 .1.1.2.5z"/><path d="M225.9 396.2c15 12.2 32.1 15.3 49.9 15.3 17.9 0 34.9-3.2 49.5-15.1.1.8.3 1.4.3 2 0 2.5-.2 4.9 0 7.4.5 6.4-2.4 10.9-7.3 14.6-5.8 4.4-12.5 7-19.4 8.7-16.4 4-32.8 3.9-49.1-.7-7.2-2-13.9-4.9-19.4-10.2-3.1-3.1-4.8-6.7-4.7-11.1.3-3.6.2-6.9.2-10.9z"/><path d="M246.1 400.4c2.6-1.3 4.6-2.4 6.6-3.4 19.3-9.7 38.6-19.3 57.9-29 2-1 3.6-1 5.2.4 2.2 1.8 4.6 3.4 6.4 5.5 4.6 5.2 4.4 11.3-.1 16.5-4.1 4.7-9.4 7.5-15 9.6-14.6 5.4-29.7 6.5-45 4.3-4.2-.6-8.4-1.7-12.6-2.6-1-.3-1.9-.8-3.4-1.3zM300.2 363.3c-1.1.6-1.7 1-2.4 1.4-20.8 10.4-37.8 18.6-58.6 29.1-1.6.8-2.9.9-4.2-.2-2.8-1.9-3.6-2.2-5.7-4.6-4.1-4.8-4.2-9.8-.3-14.7 4.3-5.3 10.1-8.4 16.3-10.5 19.5-6.7 34.1-6.9 53.8-1 .2-.1.4.1 1.1.5z"/></svg>