<svg xmlns="http://www.w3.org/2000/svg" xml:space="preserve" id="Capa_1" x="0" y="0" style="enable-background:new 0 0 600 600" version="1.1" viewBox="0 0 600 600"><style>.st0{fill:#f0e04b}.st1{fill:none;stroke:#fff;stroke-width:1.0682;stroke-miterlimit:10}.st2{stroke-width:1.1534}.st2,.st3{fill:none;stroke:#fff;stroke-miterlimit:10}.st4{fill:#020818}.st5{fill:#fff}.st6{fill:#9e9e9e}.st7{fill:none;stroke:#fff;stroke-width:.5;stroke-miterlimit:10}.st8{fill:#606060}.st9{clip-path:url(#SVGID_26_)}.st10{stroke-linecap:round}.st10,.st11,.st12,.st13,.st14{fill:none;stroke:#fff;stroke-miterlimit:10}.st11{stroke-width:2;stroke-linecap:round}.st12,.st13,.st14{stroke-width:1.2178}.st13,.st14{stroke-width:1.1071}.st14{stroke-width:2.7313}.st15{fill:#fcfcfc}.st16{fill:#0e0e0e}.st17{fill:#0c0c0c}.st18{fill:#0d0d0d}.st19{fill:#111}.st20{fill:#090909}.st21{fill:#f1f1f1}.st22{fill:#eaeaea}.st23{fill:#c78a5d}.st24{fill:#3a4755}.st25{fill:#3b4955}.st26{fill:#dee7ee}.st27{fill:#3b4959}.st28{fill:#ebf2f7}.st29{fill:#e4d398}.st30{fill:#3c4853}.st31{fill:#2e3a40}.st32{fill:#3f444a}.st33{fill:#f2d88e}.st34{fill:#f8e5a8}.st35{fill:#c7be93}.st36{fill:#e7debc}.st37{fill:#fcfcfd}.st38{fill:none;stroke:#606060;stroke-width:5;stroke-linejoin:round}.st39{opacity:.33;fill:#4ca7ab}.st40,.st41{fill:none;stroke:#000;stroke-width:.5;stroke-miterlimit:10}.st41{stroke-width:.9421}.st42{fill:#f9f4be}.st43{fill:#3c3d3e}.st44{fill:#f7f3be}.st45{fill:#33302b}.st46{fill:#2d3330}.st47{fill:#262422}.st48{fill:#4c4d4b}.st49{fill:#363535}.st50{fill:#272530}.st51{fill:#37352b}.st52{fill:#eecc53}.st53{fill:#88e56a}.st54{fill:#f8f8f9}.st55{fill:#89793a}.st56{fill:none;stroke:#000;stroke-width:2.5;stroke-miterlimit:10}.st57{fill:#b6b5b5}.st58{fill:#009aab}.st59{fill:#c34340}.st60{fill:#c44844}.st61,.st62{fill:none;stroke:#000;stroke-width:21;stroke-miterlimit:10}.st62{stroke-width:15}.st63{fill:#fdfcfc}.st64{fill:#fefefe}.st65{fill:#efe6a5}.st66{fill:#fcf9f9}.st67{fill:#fdfdfd}.st68{fill:#fefdfd}.st69{fill:#a74b50}.st70{fill:#a74c51}.st71{fill:#e8b3b0}.st72{fill:none;stroke:#a33434;stroke-width:4;stroke-linecap:round;stroke-miterlimit:10}.st73{fill:#a74b4f}.st74{fill:#a6494e}.st75{fill:#e9b3b1}.st76{fill:#fcfbfb}.st77,.st78,.st79{stroke:#000;stroke-miterlimit:10}.st78,.st79{stroke-width:.75}.st79{fill:none;stroke-width:4;stroke-linecap:round}.st80{fill:#d1e2fc}.st81{fill:#fcfcfe}.st82{fill:#777}.st83{fill:#1c227d}.st84{fill:#e28b80}.st85{fill:none;stroke:#000;stroke-width:17;stroke-miterlimit:10}</style><path d="M105.5 146.8c36.4-5.3 54.1 7.4 61 44.9 6.2 33.9 2.2 67.5-8.4 99.9-4.3 12.9-14.4 23.8-21.3 35.9-3.3 5.8-7.5 12.2-7.8 18.4-3.1 64.7-2.8 129.3 9.5 193.3 3.3 17.2-6.6 32.2-22.2 35.2-15.6 2.9-29.4-6.4-32.8-23.7-9.4-46.7-12.5-94-12.8-141.5-.1-19.3.5-38.7.4-58 0-5.8 1.1-9.4 7.3-11.9 10-4.1 14.6-12.5 14.2-23.6-.5-15.1-.7-30.2-1.2-45.3-.8-24.2 10.4-44 22.9-63.3 3.2-5 6.8-9.8 10.4-14.6 16.2-21.9 9.4-39.6-19.2-45.7zM537 287.2c-.7 9.1-1.2 18.2-2 27.3-1.2 14.2-8.5 24.8-19.4 33.7-3.4 2.8-6.8 7.2-7.6 11.3-3.7 19.7-6.7 39.5-9.4 59.3-.6 4.5.2 9.8 2.2 13.9 15.3 32.8 31.1 65.3 46.7 98 8.4 17.7 3.8 34-11.6 41.4-15 7.1-30.4.9-38.8-16.4-17.9-37-35.8-74-52.9-111.4-3.1-6.8-4-15.7-3-23.2 4-29.6 9.7-58.9 13.7-88.5 1-6.9-1.6-14.4-2.9-21.6-7.1-40.1-14.2-80.2-29-118.5-2.3-6.1-2.8-13.1-3.2-19.7-1.1-19 6.9-33 23-40.2 17-7.6 33-5.6 47 7.2 16.4 15 24.8 34.7 31.7 55.2 10.1 29.8 15.4 60.5 15.5 92.2zm-11.7-27.6c2.4-44.7-19.6-80-43.3-114.4-6.8-9.9-21.5-11.3-31.5-5-10.3 6.6-14.2 20.4-8.4 31.7 3.6 6.8 8.1 13.2 12.3 19.6 16.7 25.6 24.9 53.3 20.8 84.1-1.3 9.8-2.5 19.5-3.4 29.3-1.3 13.8 7.9 25.3 21.1 26.9 13.4 1.6 25-7 26.9-20.9 2.3-17 3.7-34.2 5.5-51.3z"/><path d="M154 313.3c15.9 26.2 31.8 51.8 46.9 77.8 2.3 3.9 2 9.5 2 14.4-.6 45-1.8 90-2.1 135-.1 18.3-9.7 31.3-25.8 32.5-17 1.2-30.1-10.1-30.3-28.9-.4-36.9 1-73.8.5-110.7-.2-12.3-1.9-25.5-6.8-36.6-4.7-10.8-4.9-10.7-4.1-32.2.4-24.8-1.4-21.9 19.7-51.3zM446.4 309.8c8.7 16.3 3.2 31.5 1.1 46.5-2.8 19.1-8.2 38.1-10.7 57.3-1.3 9.9-.1 21 0 31.1.4 34.5 2.3 68 2.3 102.4 0 13.2-9.2 23.8-21.4 27-10.9 2.8-24.3-2.1-30.2-12.4-2.8-5-4.6-11.2-4.7-16.9-.6-40.5-.7-80.9-.7-121.4 0-5.1.4-11.1 3-15.3 19.9-32.5 40.4-64.9 61.3-98.3zM97.3 152.9c2.5-2.6 6.3-2.5 9.6-1.1 7.1 3.1 13.8 6.3 16.9 10.1 5.1 6.3 3.9 16-.6 22.9-5 7.7-10.5 15.1-15.7 22.6-15.9 22.8-23.7 48-21.5 76.1.8 9.9.9 19.8 1.1 29.7.2 11.8-7 20.2-17.6 21.1-11.1.9-21.1-6.7-21.2-18.5-.1-26.2.9-52.4 1.9-78.6.2-4.6 1.9-9.5 4.2-13.6 11.5-20 23-40.1 35.5-59.5 2.3-3.6 3.8-7.4 7.4-11.2zM427.9 25c26.9-.2 48.5 21.1 48.6 47.8.1 26.8-21.2 48.2-48.2 48.4-26.9.2-48.5-21.1-48.5-47.9 0-27 21-48.1 48.1-48.3zM144.9 119.7c-15.7 18.3-38.7 23.2-58.7 13.3-20.5-10.2-30.7-32-25.5-54.6 4.9-21.6 23.8-36.8 46.4-37.2 21.8-.5 41.6 14.7 47.2 36.3 3.2 12.1 2.3 12.5-9.9 15.9-4.5 1.3-9.8 5.7-11.5 10-2.2 5.9 3.9 12.9 12 16.3zM203.2 111.9c13.5-3.7 18.8-6.5 34.4-10.8 7.8 20.8 16.3 41.1 22.9 61.9 3.2 10-3.8 20.7-14.2 22.5-24.4 4.3-51.2 2.7-74.5 6-2.1-17.1-8.3-31.1-20.2-41.4 17.7-1.2 48.5 2.2 69.2.7-5.8-13.7-11.4-26-17.6-38.9zM415.7 182.9c-22.3-8.1-48-21.2-74-35.8 5.5-2.5-.1-32.5-5.6-52.9 25.3 23.3 53.8 46.8 87.2 48.1-9.3 11.4-9.8 24.6-7.6 40.6zM338.8 137.3c.5 7.3-2.6 10-9.7 11.1-22.8 3.5-22.3 3.7-24.8-18.9-1.9-16.8-3.7-33.1 1-49.9 1.8-6.4-.4-13.8-.9-20.8-.3-5.2-.2-9.6 7.1-10.2 6.8-.5 7.9 3.1 9.3 8.4 2.9 11.4 7.2 22.4 9.7 33.8 3.3 15.5 5.6 31.1 8.3 46.5z"/><path d="M185.7 107.2c-12.9 2.2-25.7 4.9-38.6 6.3-2.9.3-8.1-2.7-9-5.3-.9-2.6 3.9-8.5 5.8-8.9 26.4-7.4 45-28.6 73.3-30.2 4.6-.3 12.6-1.1 13.3.7 3.3 7.9 4.6 16.6 6.3 25 .1.7-1.7 2.4-2.9 2.7-15.8 4.6-31.6 9.1-47.5 13.6-.2-1.3-.4-2.6-.7-3.9zM519.9 260.1c-1.4 16.4-2.5 32.9-4.4 49.3-1.5 12.6-10.3 19.7-21.2 18.4-10.7-1.3-17.4-10.7-16.7-23.4.9-16.8 2.4-33.6 2.9-50.5.8-28.5-14-50.7-27.2-73.5-2.1-3.6-4.7-6.9-6.3-10.7-4.3-9.7-1.2-20.5 6.9-26 8.4-5.6 19.1-4.6 24.9 4.2 22.1 33.8 42.8 68.3 41.1 112.2z"/></svg>