<svg xmlns="http://www.w3.org/2000/svg" xml:space="preserve" viewBox="0 0 600 600"><path d="M376.8 469.6c-7.3 15.9-21 22.9-36.4 28-13.1 4.3-26.1 12.8-39.1 12.6-13.4-.2-26.5-8.9-39.9-13.2-14.9-4.8-27.7-11.9-35.2-27.3-10.3 3.5-20.2 7.5-30.4 10.2-3.6.9-10.5-.2-11.7-2.5-3-5.7 2.6-7.8 7.2-9.4 8.3-2.9 16.8-5.4 24.8-8.9 2.6-1.1 5.5-4.9 5.6-7.6.5-16.4.4-32.8.1-49.1-.1-3.2-1.1-7.1-3.1-9.4-13-15-17-33.2-20.6-51.9-.8-4.2-4-9-7.5-11.5-13.6-9.6-21-22.3-21.9-38.7-.2-4.4-.1-8.8-.1-13.2 0-18.2 3.7-23 21-27.6 1-16.5.4-33 3.3-49 9.7-52.3 58.6-90.2 112.6-88.5 52.9 1.6 99.6 43 106.2 95.3 1.7 13.6.3 27.6.3 41.2 20.1 7 21.9 10.2 22.5 30.9.7 21.7-5 39.6-25 51.3-2.5 1.5-4.1 6-4.6 9.4-3.2 19.1-7.7 37.6-21 52.7-1.8 2.1-2.7 5.7-2.8 8.6-.3 16.7-.4 33.4.1 50.1.1 2.4 2.9 5.9 5.2 6.9 8.4 3.5 17.1 6.2 25.7 9.2 4.6 1.6 9.8 3.4 7.5 9.7s-7.6 4.1-12.1 2.6c-10-3.6-20-7.1-30.7-10.9m24.4-221.2c-.4-.1-.8-.2-1.2-.2 0-8.2.1-16.4 0-24.5-.9-61.6-55.5-106.8-116.1-96.1-47.3 8.4-81.8 49.6-80.8 98.5.7 30.8 2.1 61.7 5.4 92.3 2 18.8 5.2 38.7 13.5 55.3 11.1 22.2 30 39.5 50.5 54.1 2.7 1.9 6.1 3.7 9.3 4 38.7 4.3 48.6.6 75.7-28 5.2-5.5 9.9-11.4 14.9-17.1 9.1-10.5 15.4-22.3 17.1-36.2 4-34.1 7.8-68.1 11.7-102.1m-33.1 162.9C348.5 432 330.5 446.1 301 446c-29.1-.1-46.9-14.7-66.3-34.2 0 15.5-.6 28.3.2 41.1.7 10.9 5.9 21 15.9 25.3 25.4 10.7 50.5 27.1 79.4 9 4.4-2.8 10-3.7 15-5.6 13.8-5.1 21.6-15.4 22.7-29.7 1-12.4.2-25 .2-40.6m-173.4-95.7c-1.4-18.5-2.6-35-3.8-51.6l-3.3-1.2c-2 3.1-5.4 6.1-5.8 9.4-.9 6.8-.7 13.8 0 20.7.9 8.4 4.2 15.9 12.9 22.7m213.7-1.3c11.6-8.3 17.6-30 12.5-44.8-.9-2.6-4.4-4.3-8.6-8.1-1.5 19.5-2.7 35.9-3.9 52.9M55.5 55.5c0 15.6.8 29.4-.4 43-.4 4.6-6 8.7-9.2 13.1-3-4.2-8.4-8.2-8.7-12.5-1-16.4-.4-32.9-.4-49.4 0-8.9 4.4-13 13.2-13 16 .1 32.1-.7 48 .4 4.7.3 9.1 5.8 13.7 8.9-4.4 3.1-8.7 8.5-13.3 9-13.7 1.3-27.5.5-42.9.5M544.5 55.5c-15 0-28.7.8-42.3-.4-4.8-.4-9.3-5.5-13.9-8.4 4.3-3.3 8.5-9.1 13.1-9.4 15.9-1.2 32-.3 48-.5 9.5-.1 13.9 4.3 13.8 13.8-.1 16 .7 32.1-.5 48-.3 4.6-6.1 8.8-9.4 13.1-2.9-4.6-8-9-8.4-13.8-1.1-13.7-.4-27.4-.4-42.4M55.5 544.5c14.5 0 27.8.1 41 0 6.9 0 14.6-.4 14.9 8.9.3 9-7 9.9-14.2 9.9-15.6-.1-31.1-.1-46.7 0-9.5.1-13.8-4.4-13.7-13.8.2-16-.7-32.1.5-48 .3-4.6 6.1-8.7 9.4-13.1 2.9 4.6 8 9 8.4 13.9 1.1 13.6.4 27.3.4 42.2M544.5 544.5c0-15.7-.8-29.5.4-43.2.4-4.6 6-8.7 9.3-13 3 4.2 8.3 8.3 8.6 12.6 1 16.4.4 32.9.4 49.4 0 8.9-4.6 12.9-13.3 12.9-16.5-.1-33 .6-49.3-.5-4.3-.3-8.2-5.9-12.2-9 4-3.1 7.9-8.5 12.1-8.8 14-1.1 28.2-.4 44-.4"/><path d="M401.2 248.4c-3.9 34-7.7 68.1-11.8 102.1-1.7 13.8-8 25.7-17.1 36.2-5 5.7-9.7 11.6-14.9 17.1-27.1 28.6-37 32.3-75.7 28-3.2-.4-6.6-2.1-9.3-4-20.5-14.6-39.4-31.9-50.5-54.1-8.3-16.6-11.5-36.5-13.5-55.3-3.3-30.6-4.7-61.5-5.4-92.3-1-48.8 33.4-90.1 80.8-98.5 60.5-10.7 115.2 34.6 116.1 96.1.1 8.2 0 16.4 0 24.5.5 0 .9.1 1.3.2"/><path d="M368.1 411.3c0 15.6.7 28.2-.2 40.7-1.1 14.4-8.9 24.6-22.7 29.7-5 1.9-10.5 2.8-15 5.6-28.9 18-54.1 1.7-79.4-9-10.1-4.2-15.3-14.3-15.9-25.3-.8-12.8-.2-25.6-.2-41.1 19.4 19.5 37.2 34.1 66.3 34.2 29.5 0 47.5-14.1 67.1-34.8M194.7 315.6c-8.7-6.8-12-14.3-12.9-22.8-.7-6.8-.9-13.9 0-20.7.4-3.3 3.8-6.3 5.8-9.4l3.3 1.2c1.2 16.7 2.4 33.2 3.8 51.7M408.4 314.3c1.2-17 2.4-33.3 3.9-52.9 4.1 3.8 7.7 5.5 8.6 8.1 5.1 14.8-.9 36.5-12.5 44.8"/></svg>