<svg xmlns="http://www.w3.org/2000/svg" xml:space="preserve" viewBox="0 0 600 600"><path d="M422.7 297.7c-2 4-4 8-6 11.9-4.4 8.8-8.9 17.5-13.1 26.3-2.8 5.9-7.3 9.1-13.8 9.9-14.2 1.7-28.4 3.4-42.6 5.2-3.2.4-6.5.9-9.7 1.3-8.2 1.2-14.8-2.9-16.9-10.3-2.2-7.6 3.2-16.2 11-17.3 10.8-1.5 21.7-2.8 32.6-4.2 4.9-.6 9.7-1.1 14.6-1.8 1-.1 2.3-.9 2.7-1.7 5.8-11.4 11.4-22.8 17.1-34.2.1-.2.1-.4-.3-1-7.5 8.5-14.9 17.1-22.8 26.1-1-3.8-1.9-7.2-2.7-10.5-1-4.1-2-8.2-2.9-12.4-.3-1.5-1.1-2.2-2.5-2.6-11.3-3.6-22.5-7.2-33.8-10.9-2.8-.9-5.6-1.9-8-3.5-5.5-3.6-7-9.6-4.9-17 4.6-16.8 9.1-33.5 13.6-50.3 1.5-5.5 4.6-9.4 10.2-10.9s10.5 0 14.4 4.4c.3.3.6.5 1.2 1 6.4-10.2 15.5-15.9 27.5-15.9 8.6 0 16.2 3.2 22.1 9.5 12 12.9 11.1 31.5-.1 43-7.7 7.9-17.3 10.9-28.2 8.8-10.9-2-18.2-8.8-23-18.6-.2.1-.4.1-.6.2-.8 2.9-1.6 5.7-2.3 8.6-1.3 5-2.6 9.9-4 14.9-.4 1.4 0 1.9 1.3 2.3 8.6 2.7 17 5.8 25.7 8.1 2.2.6 5.1-.7 7.6-1.3 11.7-3 23.3-6.2 35.1-9.1 11.7-2.8 22.7 4.9 25.6 17.4 3.9 16.9 8 33.7 12 50.5 3.4 14.1 6.6 28.3 10.1 42.4 1.8 7.3 2.5 14.6 2.6 22.1.1 15.9.2 31.7.9 47.6.3 8.4 1.7 16.7 2.6 25.1 1.3 11.4 2.6 22.7 3.8 34.1.6 5.6 1.4 11.2 1.8 16.8.8 10.4-7.2 18.8-17.4 18.4-8.7-.3-15.2-7-16.3-16.3-2.2-19.2-4.1-38.4-6.6-57.5-2.3-17.8-1.6-35.6-1.7-53.4v-21.2c-4.1-1-6 0-7.3 3.5-5.9 15.9-11.7 31.9-17.8 47.7-1.4 3.8-.3 7.3.1 10.8 1.1 11.4 2.6 22.7 3.9 34.1 1.2 10.7 2.4 21.4 3.8 32.1 1.4 10.9-6.2 20.2-16.8 20.1-8.1 0-15.1-5.9-16.4-14.1-1.1-6.7-1.7-13.5-2.5-20.2-1.3-10.7-2.5-21.4-3.7-32.1-1.1-9.5-2.2-19-3.2-28.5-.5-5.1 1.6-9.8 3.2-14.5 3.3-10.1 6.8-20.1 10.1-30.2.5-1.5.5-3.4.2-4.9-1.1-5.3-2.3-10.5-3.7-15.7-.6-2.3.1-3 2.2-3.1 4.2-.3 8.3-1.1 12-3.1q9.9-5.4 12.3-16.5c2.9-12.7 6-25.4 9-38.1.1-.4.1-.8.1-1.2-1 0-1.2-.1-1.4-.1M142.8 291.2c1.5 3.1 3 6.1 4.5 9.2 5 10.2 10.1 20.3 15.1 30.5 2.6 5.4 6.2 9.8 12 12 1.4.5 1.5 1.4 1.2 2.7-1.8 7.5-3.6 14.9-5.4 22.4-.8 3.4-1.9 6.8-2.3 10.3-.2 1.9.7 3.9 1.4 5.8 4.3 11.5 8.7 22.9 12.8 34.4 1 2.9 1.5 6.3 1.3 9.3-1 13.9-2.3 27.9-3.5 41.8-1 11.2-2 22.5-2.9 33.7-.6 7.7-5.8 14.3-12.9 16.2-7.6 2-15.2-.7-19.6-7.1-2.5-3.6-3.5-7.6-3.1-11.9 1.7-20 3.4-40.1 5.1-60.1.3-3.6.7-7.2.9-10.7.1-1.4-.3-2.9-.8-4.3-6-16.1-12-32.1-18.1-48.1-1.4-3.7-2.5-4.3-7.1-4 .3 2.4.6 4.8 1 7.2 1.7 10.7 3.4 21.5 5 32.2.3 2 .4 4.1.3 6.1-1 19.9-2 39.8-3 59.8-.4 8.7-.9 17.3-1.5 25.9s-7.2 15.1-15.7 15.7c-7.8.5-15.5-5.4-16.8-13.5-.6-3.7-.2-7.7 0-11.5 1-20.4 2.1-40.8 3.1-61.2.3-6.3 1.2-12.6.6-18.8-.9-9.8-2.9-19.5-4.4-29.3-.7-4.8-1.4-9.5-1.9-14.3-.7-7.2 1.3-14.1 2.7-21.1 2.5-12.4 5.2-24.8 7.8-37.1 2.3-10.9 4.7-21.7 7-32.6 1.6-7.7 3-15.4 4.9-23 3.6-14.2 14.6-20.7 28.8-17.2 12.7 3.1 25.4 6.2 37.9 9.8 4.2 1.2 7.7 0 11.4-1.2 9.3-2.9 18.5-6 27.7-9 1.8-.6 2.8-1.5 3.7-3.2l16.2-33c2.1-4.3 4.8-8 9.6-9.5 6-1.9 11.5-.6 15.7 4s5.4 10.1 2.7 15.9c-4.1 8.9-8.6 17.6-13 26.4-3 6-6 12-8.9 18-.9 1.9-2.2 2.5-4.3 2.1-6.7-1.3-12.9.3-18.8 3.6-10.7 6-21.4 11.9-32.1 17.9-1.6.9-2.7.9-4.2-.2-4.8-3.4-9.6-6.7-14.5-10.1-.6-.4-1.2-.8-2.1-.8.8 1 1.6 1.9 2.4 2.9 5.7 6.6 11.4 13.2 17 19.9 1.3 1.5 2.2 1.8 4 .8 11.8-6.7 23.7-13.2 35.5-19.9 5.4-3 10.8-3.4 16.3-.3 9 5.2 9.7 18.8 1.1 24.6-4.8 3.3-10.1 5.9-15.3 8.8-11.5 6.4-23 12.8-34.4 19.2-8.1 4.5-15 3.4-21-3.6-8.9-10.3-17.8-20.7-26.7-31-.6-.7-1.2-1.3-1.8-2-.4.3-.5.4-.6.5"/><path d="M172.7 169.8c18.4.1 32.9 14.7 32.7 33-.2 18.7-14.6 32.5-32.9 32.6-18 .2-32.7-14.8-32.7-32.8 0-18.1 14.9-32.9 32.9-32.8M543.1 196.6c-2.9-2-5.7-4-8.6-6-9.6-6.7-19.3-13.5-28.9-20.2-5.1-3.6-5.7-7.2-2.2-12.2s7-10 10.6-15c.5-.7 1-1.4 1.8-2.6-2.3-.4-4.1-.9-6-1.2-12.9-2.1-25.7-4.2-38.6-6.4-5.7-1-7.8-3.8-7-9.6.9-5.9 1.9-11.7 2.8-17.6.2-1.1.3-2.2.4-3.2-.2-.1-.4-.3-.6-.4-2.5 1.7-5.1 3.3-7.6 5l-16.8 11.4c-3.9 2.7-6.2 2.7-10.1 0-4.4-3-8.7-6.1-13.1-9.1-.6-.4-1.3-.8-2.5-.8.2.7.4 1.5.6 2.2 1.2 3.3 2.5 6.6 3.6 9.9 1.5 4.3-.1 7.7-4 9.1-3.8 1.3-7.2-.3-8.8-4.4-4.2-11.1-8.4-22.3-12.6-33.4-1.3-3.5-.5-6.5 2.1-8.4 2.5-1.9 5.4-1.9 8.6.4 9.6 6.7 19.1 13.4 28.7 20.2 1.7 1.2 2.9 1.2 4.6 0 10.9-7.6 21.9-15.1 32.8-22.6 2.7-1.8 5.5-2.4 8.4-.5s3.6 4.5 3 7.9c-1.8 9.7-3.4 19.4-5.1 29.1-.3 1.8-.1 2.6 2 2.9 15.4 2.4 30.7 5 46.1 7.4 5.8.9 8.7 4.5 7.2 9.3-.3 1.1-1 2.1-1.6 3-4.5 6.4-9 12.9-13.5 19.2-1.2 1.6-1.1 2.5.6 3.7 13.4 9.3 26.8 18.7 40.1 28.1 1.5 1.1 3.1 2.2 4.2 3.7 2.4 3.5 1.1 8.1-3.1 9.7-6.7 2.7-13.4 5.1-20.2 7.4-3.4 1.1-6.8-.9-8.1-4.2-1.2-3.1.4-7 3.6-8.4 2.2-.9 4.5-1.7 6.8-2.5.3-.4.4-.7.4-.9M85 131.3l-1.2 15.3c-.3 4.2-.5 8.5-.9 12.7-.2 3-2.6 5.2-6.1 5.7-6.4.9-12.8 1.7-19.2 2.6-1.9.3-3.9.6-5.8.8-1.9.1-2.3.9-2 2.7 1.6 10.3 3.1 20.6 4.7 31q.75 5.25-3.3 7.5c-2.4 1.3-5.6 1.2-7.7-.9-1.1-1.1-2.1-2.8-2.4-4.4-2.1-13.2-4.1-26.4-6-39.7-.7-5.1 1.3-7.7 6.5-8.4 8.6-1.2 17.1-2.4 25.7-3.5 2-.2 2.8-1.1 2.9-3.1.7-11.5 1.5-22.9 2.3-34.4.2-3 1.2-5.8 4.5-7s5.9.1 8.1 2.5l23.7 24.3c3.1 3.2 3.5 6.2 1.3 9.4s-6.8 3.9-9.6 1.2c-4.3-4.1-8.4-8.4-12.6-12.6-.7-.7-1.4-1.3-2.1-1.9-.3 0-.5.1-.8.2"/></svg>