<svg xmlns="http://www.w3.org/2000/svg" xml:space="preserve" viewBox="0 0 600 600"><path d="M277.8 143.5v-42.8H4.4v42.8h33.1v58H4.4v44.2h273.4v-48.3h-33.1v-53.9zm-155.3 58h-47v-58h47zm86.4 0h-47v-58h47z"/><path d="M576.1 178.5c-28.7-75.4-52.5-73.7-52.5-73.7l-41.4-2.8V66.1s-6.4-22.1-37-22.1c-32 0-37.5 24.9-37.5 24.9V102h-58s-25.8 4.1-36.8 22.1c-10.3 16.7-10.1 41.4-10.1 41.4v113.2H4.4V415s0 25.8 20.3 40.5c13.2 9.6 35 11 35 11h21.4c-.1 1.2-.2 2.4-.2 3.7 0 47.3 38.3 85.6 85.6 85.6s85.6-38.3 85.6-85.6c0-1.2-.1-2.5-.2-3.7h97.9c0 1.2-.2 2.4-.2 3.7 0 47.3 38.3 85.6 85.6 85.6s85.6-38.3 85.6-85.6c0-1.2-.1-2.5-.2-3.7h74.8V278.8c.1 0 2.8-42.3-19.3-100.3M166.5 505.8c-19.6 0-35.4-15.9-35.4-35.4 0-19.6 15.9-35.4 35.4-35.4s35.4 15.9 35.4 35.4-15.8 35.4-35.4 35.4m268.8 0c-19.6 0-35.4-15.9-35.4-35.4 0-19.6 15.9-35.4 35.4-35.4 19.6 0 35.4 15.9 35.4 35.4s-15.8 35.4-35.4 35.4M357 281.6V156.4h145.5s16.1 27.1 26.7 62.6c11 36.8 11 62.6 11 62.6z"/></svg>