<svg xmlns="http://www.w3.org/2000/svg" xml:space="preserve" viewBox="0 0 600 600"><path d="M232.4 246.2c-2.1-15-9.7-27.8-17.7-40.7-22.9-37.1-50.3-108.5-54.4-119.7-4.5-12.2-18.1-40.2.6-45.8 22.1-6.6 26.1 12.9 31.3 28.4 16 48 41.2 86.4 97 93.2 38.7 4.7 62 4.6 100.3 4.2 32.2-.3 48 2.2 62.9 4.8 1.5.3 39.4 4.6 39.4 15.3 0 9.6-10.5 15.2-22.8 15.2-1.2 0-28.2 2.3-29.4 2.4-35.1.9-69.5-6.1-91.8 13.2-17.3 15-13.4 20.1-16.7 39.9-4.5 27.3-90.1 51.7-98.7-10.4M94.4 262.8c-2.8-6.7-6.2-9.9-6.2-15.9 0-21.2.5-42.9 2.3-65.5.4-4.5 7.4-14.6 11.8-19.9 12.8-15.3 26-29.1 38.8-44.2 15.2-17.8 23.1-16 24.2 6.5.1 1.9-.3 4.2-.4 6.3-2.9 55.1-2.9 55.3-38.7 97.5-10.5 12.3-21.1 23.4-31.8 35.2"/><path d="M87 231.3c-2.8-6.7-6.3-9.9-6.3-15.9-.1-21.2.4-43 2.2-65.5.4-4.5 7.4-14.6 11.9-19.9 12.9-15.3 26-29.1 39-44.2 15.2-17.7 23.3-15.9 24.3 6.6.1 1.9-.3 4.2-.4 6.3-2.8 55.2-2.8 55.3-38.7 97.5-10.5 12.2-21.2 23.3-32 35.1"/><path d="M80.3 228.7c-2.8-6.7-6.2-9.9-6.2-15.9 0-21.2.5-42.9 2.3-65.5.4-4.5 7.4-14.6 11.8-19.9 12.8-15.3 26-29.1 38.8-44.2 15.2-17.8 23.1-16 24.2 6.5.1 1.9-.3 4.2-.4 6.3-2.9 55.1-2.9 55.3-38.7 97.5-10.4 12.3-21.1 23.4-31.8 35.2M506.3 371.7c-5.6-4.6-10.1-5.8-12.9-11.1-9.9-18.7-19.6-38.2-28.5-59-1.8-4.1-.3-16.4 1.2-23.1 4.2-19.5 9.4-37.9 13.7-57.3 5.1-22.8 13-24.9 24.4-5.5 1 1.6 1.7 3.9 2.6 5.8 23.2 50.1 23.3 50.2 11.2 104.3-3.5 15.6-7.7 30.4-11.7 45.9"/><path d="M493 375.2c-5.6-4.6-10.2-5.8-13-11.1-10-18.7-19.7-38.2-28.6-59-1.8-4.1-.2-16.4 1.2-23.1 4.2-19.5 9.4-37.9 13.8-57.3 5.2-22.8 13.1-24.9 24.6-5.5 1 1.6 1.7 3.9 2.6 5.8 23.3 50.1 23.4 50.2 11.2 104.3-3.5 15.7-7.8 30.5-11.8 45.9"/><path d="M485.9 376.1c-5.6-4.6-10.1-5.8-12.9-11.1-9.9-18.7-19.6-38.2-28.5-59-1.8-4.1-.3-16.4 1.2-23.1 4.2-19.5 9.4-37.9 13.7-57.3 5.1-22.8 13-24.9 24.4-5.5 1 1.6 1.7 3.9 2.6 5.8 23.2 50.1 23.3 50.2 11.2 104.3-3.6 15.7-7.8 30.4-11.7 45.9M291.6 40c28.9-.3 49.9 21 49.9 50.5 0 27.5-21.1 48.2-49.5 48.6s-51.8-21.8-52-49.4c-.2-26.8 23.2-49.4 51.6-49.7M334.5 205.4c0 106.7 0 213.4-.1 320.1 0 5.8-.1 11.8-1.5 17.3-3.3 12.9-13.9 19.6-27.2 18.2-11.9-1.2-22.6-12.2-23.3-24.5-.4-7.6-.2-15.3-.2-22.9V384.7c0-3.8.7-8.7-4.6-8.9-5.8-.1-4.5 5.1-4.5 8.7-.1 48.8 0 97.6-.1 146.4 0 14.2-6.9 24.6-18.9 29-14.2 5.1-29.3-3.1-32.5-17.8-.8-3.7-1.2-7.6-1.2-11.4-.1-49.7-.1-99.4.1-149.1v-25.8c-.1-49.9-.1-99.8-.2-149.7 0-1.5.5-3.2-.2-4.3-.9-1.8 114.4.1 114.4 3.6M227.9 364.7c.2.6.4 1.2.6 1.9 1.7-.7 4-.9 5-2.2s1.4-3.9.7-5.3c-.7-1.3-3-2-4.8-2.5-1.5-.4-3.2-.3-6.2-.5 2.5-2.1 3.7-3.1 5-4.2-.2-.4-.3-.9-.5-1.3-1.6.5-3.7.6-4.6 1.7-1 1.1-1.5 3.5-1 4.7.5 1.3 2.5 2.3 4.1 2.8 1.8.5 3.7.3 5.6.4 0 .4.1.9.1 1.3-1.3 1.1-2.6 2.2-4 3.2"/><path d="M227.9 364.7c1.3-1 2.6-2.1 4-3.1 0-.4-.1-.9-.1-1.3-1.9-.1-3.9.1-5.6-.4-1.6-.5-3.5-1.5-4.1-2.8-.5-1.3 0-3.6 1-4.7s3-1.2 4.6-1.7c.2.4.3.9.5 1.3-1.2 1-2.4 2.1-5 4.2 3 .2 4.7 0 6.2.5 1.7.5 4.1 1.2 4.8 2.5s.2 4-.7 5.3c-1 1.3-3.3 1.5-5 2.2-.2-.8-.4-1.4-.6-2"/></svg>