<svg xmlns="http://www.w3.org/2000/svg" xml:space="preserve" viewBox="0 0 600 600"><path d="M350.2 132.7V127c0-6.8-.3-13.7.1-20.5.7-13.6 10.3-25 23.5-28.6 14.9-4 30.2 2.9 37 16.8 2.3 4.7 3.3 9.6 3.3 14.8 0 7.1.1 14.2.1 21.3v1.6c3 .2 5.5 1.2 7.5 3.3 2.8 3.2 3.4 6.9 1.9 10.7-1.6 3.9-4.7 5.9-8.9 6.3h-1.4c-20.7.1-41.3.2-62 .4-4.1 0-7.5-1.4-9.7-5-3.7-6.2.3-14.4 7.4-15.2.3-.1.6-.2 1.2-.2m16.8-41c-.6.4-1.9.9-2.8 1.9-3.2 3.6-5.3 7.8-5.6 12.6-.3 5.2-.2 10.5-.2 15.8 0 3 2 5 4.7 5 2.7-.1 4.5-2.1 4.5-5.2 0-4-.1-8 0-11.9 0-1.4.2-2.8.5-4.2.4-2.7 2.1-4.7 3.6-6.8 1.1-1.5 1.1-3.1.3-4.6-1-1.8-2.4-2.5-5-2.6M374.7 41.7c0-4.2-.1-8.5-.1-12.7.1-4.9 4.3-8 8.9-6.7 2.7.8 4.7 3.2 4.7 6.3.1 8.7.2 17.4.2 26.2 0 4.1-3 6.9-6.9 6.9-3.8 0-6.6-2.8-6.8-6.8-.1-2.2 0-4.4-.1-6.6.1-2.2.1-4.4.1-6.6M325.7 51.4c0-3.1 1.4-5.2 4.1-6.4 2.8-1.2 5.4-.7 7.6 1.4 3.2 3.1 6.3 6.2 9.5 9.3 3 3 6.1 5.9 9 8.9 3.8 4 1.9 10.3-3.5 11.5-2.3.5-4.3-.1-5.9-1.6-6.3-6.1-12.5-12.3-18.8-18.5-1.3-1.2-1.9-2.9-2-4.6M437.5 49.9c0 2.6-.7 4.3-2.1 5.7-6 6.1-12 12.2-18.1 18.3-1.9 1.9-4.3 2.7-7 1.8-2.8-1-4.4-2.9-4.7-5.9-.2-2.3.6-4.2 2.2-5.8 4.4-4.5 8.8-8.9 13.2-13.4 1.7-1.7 3.4-3.5 5.2-5.2 2.2-1.9 4.7-2.2 7.3-1s4 3.3 4 5.5M269.2 37.1l.8-.8c1.7-1.4 3.3-4.4 5.9-1.8 2.3 2.2-.4 3.8-1.6 5.3-5.8 7-11.4 14.1-14.7 22.8-10.7 27.6-7.4 53.3 10.7 77 2 2.6 7.8 5.7 3.9 8.8-4.1 3.3-6.6-2.9-8.7-5.6-27-35.9-20.5-78.3 3.7-105.7"/><path d="M264.2 38.6c.9-1.2 1.9-2.3 2.9-3.5l.1-.1c.1-.2.6-.6 1-1 .3-.2.5-.5.8-.8 1.1-1.1 2.6-2.7 4.9-2.7 1.4 0 2.8.6 4 1.8 1.1 1.1 1.7 2.4 1.7 3.7 0 2.2-1.5 3.7-2.5 4.7-.2.2-.5.5-.6.7-6 7.3-11.2 14-14.3 22-10.5 27.2-7.1 51.4 10.3 74.3.4.5 1 1.1 1.7 1.7 1.9 1.7 4.2 3.9 4.1 6.8 0 1.1-.5 2.8-2.4 4.3-2 1.6-3.8 1.7-4.9 1.5-3.2-.5-5.1-3.6-6.7-6-.4-.6-.7-1.2-1.1-1.6-28.3-37.4-20.1-79.3 1-105.8"/><path d="M284.5 50.7c1.7-1 2.9-5.2 6.1-2.5 2.7 2.4-.4 4.1-1.8 5.9-18.2 22.3-18.7 50.3-1.3 73 1.4 1.9 5.2 3.8 1.9 6.5-3.1 2.5-4.5-1.4-6.1-3.2-19.2-21.3-18.6-58.7 1.2-79.7"/><path d="M279.5 52.2c.9-1.2 1.9-2.3 3-3.4l.6-.5c.2-.1.5-.5.7-.8.9-1.1 2.3-2.8 4.5-3 1.4-.1 2.9.4 4.2 1.6s2 2.5 2 3.9c.1 2.3-1.5 3.9-2.7 5-.5.5-1 1-1.4 1.6-16.8 21.1-17.1 47.3-.7 68.7.2.3.6.6.9 1 1.3 1.2 3 2.9 2.9 5.3-.1 1.5-.8 2.9-2.4 4.1-1.4 1.2-2.9 1.6-4.4 1.4-2.4-.3-3.8-2.4-4.8-3.8-.3-.4-.5-.8-.8-1.1-19.1-21.2-19.5-57.6-1.6-80m8.1 79.1c-.1-.2-.3-.3-.5-.5.1.2.3.4.5.5"/><path d="M296.7 116c-11-11.5-10.6-34.9.9-45.5 1.5-1.4 2.9-3.8 5.3-1.5 1.9 1.9.1 3.3-1 4.8-9.9 12.8-10.4 25.8-.6 39 1.3 1.7 3.1 3.3.7 5.4-1.4 1.2-2.6.6-5.3-2.2"/><path d="M293 71.2c.8-1 1.7-2 2.6-2.8l.6-.6c1-1 2.5-2.6 4.7-2.6 1.4 0 2.7.6 3.9 1.7 3.6 3.4.7 6.9-.3 8l-.4.5c-9.3 12-9.5 23.7-.6 35.6l.4.6c1 1.3 4 5.1-.1 8.7-3.7 3.3-7.1-.3-9.2-2.4-5.9-6.1-9-15.4-8.7-25.5.2-8.2 2.8-15.7 7.1-21.2M488.8 37.1l-.8-.8c-1.7-1.4-3.3-4.4-5.9-1.8-2.3 2.2.4 3.8 1.6 5.3 5.8 7 11.4 14.1 14.7 22.8 10.7 27.6 7.4 53.3-10.7 77-2 2.6-7.8 5.7-3.9 8.8 4.1 3.3 6.6-2.9 8.7-5.6 27.1-35.9 20.6-78.3-3.7-105.7"/><path d="M493.9 38.6c-.9-1.2-1.9-2.3-2.9-3.5l-.1-.1c-.1-.2-.6-.6-1-1-.3-.2-.5-.5-.8-.8-1.1-1.1-2.6-2.7-4.9-2.7-1.4 0-2.8.6-4 1.8-1.1 1.1-1.7 2.4-1.7 3.7 0 2.2 1.5 3.7 2.5 4.7.2.2.5.5.6.7 6 7.3 11.2 14 14.3 22 10.5 27.2 7.1 51.4-10.3 74.3-.4.5-1 1.1-1.7 1.7-1.9 1.7-4.2 3.9-4.1 6.8 0 1.1.5 2.8 2.4 4.3 2 1.6 3.8 1.7 4.9 1.5 3.2-.5 5.1-3.6 6.7-6 .4-.6.7-1.2 1.1-1.6 28.2-37.4 20.1-79.3-1-105.8"/><path d="M473.6 50.7c-1.7-1-2.9-5.2-6.1-2.5-2.7 2.4.4 4.1 1.8 5.9 18.2 22.3 18.7 50.3 1.3 73-1.4 1.9-5.2 3.8-1.9 6.5 3.1 2.5 4.5-1.4 6.1-3.2 19.1-21.3 18.6-58.7-1.2-79.7"/><path d="M478.6 52.2c-.9-1.2-1.9-2.3-3-3.4l-.6-.5c-.2-.1-.5-.5-.7-.8-.9-1.1-2.3-2.8-4.5-3-1.4-.1-2.9.4-4.2 1.6s-2 2.5-2 3.9c-.1 2.3 1.5 3.9 2.7 5 .5.5 1 1 1.4 1.6 16.8 21.1 17.1 47.3.7 68.7-.2.3-.6.6-.9 1-1.3 1.2-3 2.9-2.9 5.3.1 1.5.8 2.9 2.4 4.1 1.4 1.2 2.9 1.6 4.4 1.4 2.4-.3 3.8-2.4 4.8-3.8.3-.4.5-.8.8-1.1 19.1-21.2 19.5-57.6 1.6-80m-8.1 79.1c.1-.2.3-.3.5-.5-.2.2-.3.4-.5.5"/><path d="M461.4 116c11-11.5 10.6-34.9-.9-45.5-1.5-1.4-2.9-3.8-5.3-1.5-1.9 1.9-.1 3.3 1 4.8 9.9 12.8 10.4 25.8.6 39-1.3 1.7-3.1 3.3-.7 5.4 1.4 1.2 2.5.6 5.3-2.2"/><path d="M465.1 71.2c-.8-1-1.7-2-2.6-2.8l-.6-.6c-1-1-2.5-2.6-4.7-2.6-1.4 0-2.7.6-3.9 1.7-3.6 3.4-.7 6.9.3 8l.4.5c9.3 12 9.5 23.7.6 35.6l-.4.6c-1 1.3-4 5.1.1 8.7 3.7 3.3 7.1-.3 9.2-2.4 5.9-6.1 9-15.4 8.7-25.5-.3-8.2-2.8-15.7-7.1-21.2M235.2 448.4c-11.1 12.6-15.1 16.9-23.2 25.1-5.6 5.6-15 14.6-29 14.8-11.8.1-74.8-36.4-88-46.2-9.8-7.3-10.2-15.6-3.8-24.8 5.5-6.4 15.5-10.6 26.8-3.3 17.1 12.9 53 31.7 59 31.3 3.4-.6 8.8-6 10.5-8.7 25.7-35 40.4-56.5 65.1-93.8.5-.7 1.6-2.2 2.8-3.7-5.5-.2-24.5.8-34.7 8.8-12.2 9.6-24 17.4-35.5 26.6-7.1 5.7-14.5 5.7-20.5-1.5-5.8-7-4-15.1 3.1-20.9 14.7-12.1 30.1-25.7 45.1-37.5 3.3-2.6 7.7-4.5 11.8-5.1 21.2-3.1 45.3-4.5 65.2-5 7-.2 14.8-1.2 20.8 2.3 22.9 13.1 22.5 18.8 18.9 35.9-1.8 8.6 10.1 19.8 20.7 30.1 6 6.9 22.2 9.6 39.7 13.8 9.5 2.3 14.1 7.9 12.9 16.6-1.2 8.9-5.5 13-17.2 10.7-11.1-2.7-39-9.2-45.9-12.2-3.3-.9-25.3-23.8-29.2-25.2-2.9-1-21.7 28-22 28.5-13.1 21.5-10.1 23.9 5.6 37.7 5.6 4.9 19.8 14.4 23.8 21.6 4 7 3.1 31.8 3.1 46.5 0 12.8-.3 35.8-.3 45.6 0 15.9-3.1 22-16.3 22-13 0-18.6-8.3-18.6-25.4v-44c0-16.5-1.4-21.6-3.2-24.5-3.5-6.1-19.3-18.9-47.5-36.1M385.6 278.6c0 20.5-16.4 36.9-36.9 36.9-20.4 0-37.1-16.4-37.2-36.8-.1-20.7 16.7-37.5 37.5-37.4 20.4.2 36.6 16.8 36.6 37.3"/><path d="M258.8 160.4v123s14.3-.5 24.3-.7l-.3-97.2h204.7l.5 392h24V160.4z"/></svg>