<svg xmlns="http://www.w3.org/2000/svg" xml:space="preserve" viewBox="0 0 600 600"><path d="M373.6 305.5h29.1c8.8 0 13.6-3.6 16.1-12.1 2.9-10 5.5-20 8.5-30 8.9-29.5 6.9-58.2-7.1-85.8-9.1-18.1-24.1-28.2-44.3-29-20.6-.8-36.9 8.1-47.1 26.1-12.3 21.6-17.1 45.2-12.7 69.6 3.1 17.3 8.5 34.2 13.2 51.1 1.8 6.5 7.3 10 14.1 10 10.1.2 20.2.1 30.2.1M226.2 368h29.1c8.9 0 13.8-3.6 16.3-12.4 2.8-9.9 5.4-19.8 8.4-29.7 8.9-29.5 7-58.2-7-85.8-9.1-18.1-24.1-28.2-44.3-29.1-20.6-.9-36.9 8-47.2 26-12.3 21.6-17.1 45.2-12.7 69.6 3.1 17.3 8.5 34.2 13.2 51.2 1.8 6.5 7.3 10.1 14 10.1 10.1.1 20.2.1 30.2.1m147.6-47.8c-9.8 0-19.6-.1-29.5 0-7.8.1-14.2 5.7-14.6 13.3-.3 6.2-.3 12.4.6 18.5 2.9 20.1 20.3 35.6 40.6 36.8 20.7 1.2 39.9-11.9 45-31.7 1.7-6.8 1.7-14.1 1.9-21.2.3-9.7-6-15.8-15.7-15.8-9.4.1-18.9.1-28.3.1m-147.2 62.5c-9.8 0-19.6-.1-29.5 0-7.8.1-14.3 5.6-14.7 13.2-.3 6.4-.3 12.9.7 19.2 3 19.7 20.4 35 40.4 36.2 20.5 1.3 39.8-11.7 45-31.3 1.8-7 1.8-14.5 2.1-21.8.3-9.4-6.1-15.5-15.6-15.5-9.5-.1-19 0-28.4 0"/><path d="M557 237.6h-53.3c-4 0-7.2-3.2-7.2-7.2s3.2-7.2 7.2-7.2H557c4 0 7.2 3.2 7.2 7.2s-3.2 7.2-7.2 7.2m-110.9 0h-57.6c-4 0-7.2-3.2-7.2-7.2s3.2-7.2 7.2-7.2h57.6c4 0 7.2 3.2 7.2 7.2s-3.2 7.2-7.2 7.2m-115.2 0h-57.6c-4 0-7.2-3.2-7.2-7.2s3.2-7.2 7.2-7.2h57.6c4 0 7.2 3.2 7.2 7.2s-3.2 7.2-7.2 7.2m-115.1 0h-57.6c-4 0-7.2-3.2-7.2-7.2s3.2-7.2 7.2-7.2h57.6c4 0 7.2 3.2 7.2 7.2s-3.3 7.2-7.2 7.2m-115.2 0H43c-4 0-7.2-3.2-7.2-7.2s3.2-7.2 7.2-7.2h57.6c4 0 7.2 3.2 7.2 7.2s-3.3 7.2-7.2 7.2"/></svg>