<svg xmlns="http://www.w3.org/2000/svg" xml:space="preserve" viewBox="0 0 600 600"><path d="M428.8 368.1c-12 5.7-21.6 14.5-30.1 24.4-14 16.5-23.8 35.5-30.7 55.9-1.6 4.7-4.4 6.5-9.3 6.4-39.2-.1-78.3-.1-117.5-.1h-6.1c-.3 28.9-10.9 52.7-32.6 71.1-17.1 14.5-37.1 21.4-59.5 21.2-42.6-.4-79.6-30.8-88.3-71.9-8.9-41.8 12.6-88.8 62.8-106.7-6.9-1.4-12.5-2.6-18.1-3.8-15.4-3.1-30.9-6-46.3-9.4-2.6-.6-5.4-2.9-6.8-5.2-4.5-7.4-8.5-15.2-12.6-22.8-3.7-6.9-1.7-10.4 6.2-10.4h172.9c.1-.4.2-.8.3-1.1l-20.4-14.1c-6-4.1-12-8.2-17.9-12.3-11.6-8.2-14.8-21.3-7.5-33.5 11.1-18.5 22.5-36.8 33.9-55.1 8.2-13.1 16.4-26.2 24.9-39.1 17.4-26.7 46.9-33.3 74.5-17.1 14.2 8.4 24.4 20.7 34 33.8 17.3 23.7 35.2 46.8 52.1 70.8 4.8 6.8 10.4 9.6 17.8 9.6 8.3 0 14.1 2.6 15.3 11.7.4 3.1 2.2 4.2 5.7 4.3 9.6.3 18.1 4 25.6 10.1 3.4 2.8 5.4 6.3 5.2 10.9-.3 7.7-.4 15.3-.6 23.6 6.4 1 13.8 2.1 21.1 3.5 24.2 4.5 47.1 12.7 68.5 25 6.4 3.7 8.7 10.4 5.7 16.4-3.2 6.3-9.9 8.7-16.9 5.6-7.3-3.3-14.3-7.4-21.8-10.4-19.6-7.8-39.5-7.5-60-2 .6 1.9 1 3.3 1.5 4.8s1.1 3 1.8 4.8c4.7-.5 9.5-1.1 14.2-1.5 45.9-4.2 88.9 28 97 75 5.4 31.7-4 59.4-27.3 81.7-20.1 19.3-44.6 27.1-72.1 24.4-42.5-4.2-75.3-37.4-80.5-77.6-4.6-35.5 8.3-63.9 35.9-86.1 1-.8 2.2-1.4 3.3-2.1 7.2-4.5 7.2-4.5 2.7-12.7m-225.4 59.2c-16.1-31.9-54-46-85.2-32.2-33.5 14.8-48.9 50.8-36.2 85 11.9 32.2 48.8 49.8 82.3 39.1 31.8-10.2 48.8-41.9 45.1-67.6-5.3 1.9-10.6 3.8-15.8 5.7-13.4 4.9-26.9 9.9-40.4 14.6-5.1 1.8-9.6.1-13-4-3.4-4.2-4-9.2-1.1-13.5 2-2.9 5.6-5.4 9-6.7 18.3-6.9 36.8-13.6 55.3-20.4m261.4-35.8c.3 1.1.6 2.1 1 3.2 7.4 19.9 14.8 39.7 22.1 59.6 2.9 8 .2 14.8-6.9 17.6-6.6 2.6-13.3-.9-16.3-8.8-3.1-7.9-5.8-16-8.8-23.9-4.8-12.8-9.6-25.5-14.4-38.3-25 13.9-39.3 50.4-25.4 81.5 14.8 33.2 51.1 48.3 85.3 35.4 31.6-12 49.2-48.6 39-81.1-11.1-35.1-47.5-52.2-75.6-45.2m-54.4-73.9c-4.2-11.6-8.1-22.1-12-32.6-.3-.7-.9-1.6-1.5-1.7-5-.6-10.5-2.4-15.1-1.2-9.7 2.6-17 .4-23.3-6.9-14.7-17.1-29.4-34.1-44.2-51.2-3.3-3.8-6.8-7.5-10.5-11.5-15.1 29.8-29.9 58.9-44.8 88.3 16.2 14.3 32.4 28.5 49.1 43.2 1.2-1.5 2-3 3.2-3.9 6.6-5 12.9-10.7 20.2-14.7 10.7-6 22.6-7.9 35-7.8 14.3.1 28.6 0 43.9 0M367 96.7c0 23.2-19.8 43.4-42.3 43.7-26.4.3-45-19.5-45.6-42.2-.6-25.2 18.7-44.8 42.1-45.5 26.8-.7 46.1 21.2 45.8 44"/><path d="M243.2 392.3c-1.6 4.7-23.2 15.4-34.4 15.4-1.9 0-61.9-33.4-74.7-45.4-14.6-7.6-51.7-34.5-49.9-34.5.1-.4.2-.8.3-1.1l-20.4-14.1c-6-4.1-12-8.2-17.9-12.3-11.6-8.2-14.8-21.3-7.5-33.5 11.1-18.5 22.5-36.8 33.9-55.1 8.2-13.1 16.4-26.2 24.9-39.1 17.4-26.7 46.9-33.3 74.5-17.1 14.2 8.4 24.4 20.7 34 33.8 17.3 23.7 35.2 46.8 52.1 70.8 4.7 6.8-8 111.7-14.9 132.2m9.9-67.6c1.5-8.5 4.9-33.2.3-32-9.7 2.6-17 .4-23.3-6.9-14.7-17.1-29.4-34.1-44.2-51.2-3.3-3.8-6.8-7.5-10.5-11.5-15.1 29.8-29.9 58.9-44.8 88.3 16.2 14.3 32.4 28.5 49.1 43.2 1.2-1.5 2-3 3.2-3.9 6.6-5 12.9-10.7 20.2-14.7 10.7-6 22.6-7.9 35-7.8 14.2.2 14.9-2.9 15-3.5M238.5 107.4c0 23.2-19.8 43.4-42.3 43.7-26.4.3-45-19.5-45.6-42.2-.6-25.2 18.7-44.8 42.1-45.5 26.8-.7 46.1 21.2 45.8 44"/></svg>