<svg xmlns="http://www.w3.org/2000/svg" xml:space="preserve" viewBox="0 0 600 600"><path d="M140.7 297.4c-2.6-.1-4.8-.1-6.9-.3-9.6-1-16.2-7.5-17.2-17-1.8-17.1 2-27.1 12.1-30.2 4.1-1.2 8.6-1.2 13-1.2 17.6-.1 17.6-.1 22.9-16.7 3.4-10.7 6.9-21.3 10.4-31.9 8-24.4 28.9-41.1 54.5-41.4 47.2-.6 94.4-.6 141.5 0 25.6.4 46.3 17.1 54.4 41.6 4.7 14.4 9.6 28.7 14 43.2 1.3 4.2 3.3 5.5 7.5 5.3 5.9-.3 11.8-.2 17.8 0 11.8.3 18.8 7.2 19.2 18.9.1 2.2 0 4.4 0 6.6-.1 16.1-5.7 22.1-21.9 23.1-.8.1-1.7.3-2.2.4 1.4 14.7 3.6 29 3.9 43.4.6 33.1.4 47.9.3 81.1 0 12-7.4 19.3-19.3 19.6-9.7.2-19.3.1-29 0-13.2-.2-20.4-7.4-20.5-20.4-.1-8.3-.1-16.7-.1-25 0-.4-.2-.8-.5-1.8H205.3v25.5c-.1 14.8-7 21.8-21.8 21.8-9 0-18 .1-27 0-12.7-.2-20-7.4-20-20.2 0-34-.2-49.7.4-83.7.1-13.6 2.4-26.8 3.8-40.7m159.5-14.6h109.3c7.5 0 8.7-1.6 6.5-8.7-5.5-17.4-16.6-53.9-24.5-70.3-5.3-11-12.9-16.8-24.7-16.8-44.3-.1-88.7-.1-133 0-11.8 0-16.2 2-23.1 16.9-7.3 14.6-20.1 52.2-25.4 69.1-2.7 8.5-1.8 9.7 7 9.7 32.9.1 75 .1 107.9.1m86.8 77.6h19.1c7.3-.6 11.3-4.4 11.7-11.7.3-5.9.3-11.9 0-17.8-.4-8.7-6.4-13.2-15.2-11.8-7.1 1.1-14.3 2.3-21.4 3.4-20.1 3-20.9 3.8-24 23.6-1.3 8.2 3.1 13.8 11.4 14.2 6.1.4 12.2.1 18.4.1m-173.8.1c5.9 0 11.8.2 17.7-.1 2.7-.1 5.8-.7 8-2.2 5.4-3.6 5.6-9.2 4.1-14.7-1.8-6.8-.4-16.1-10.1-18-12-2.4-24.2-4.1-36.3-5.6-8.6-1-13.3 3.5-13.6 12-.2 5.2-.2 10.5 0 15.8.2 8.4 4.3 12.5 12.5 12.9 5.9 0 11.8-.2 17.7-.1"/><path d="M491.4 561.4H108.6c-38.6 0-70-31.4-70-70V108.6c0-38.6 31.4-70 70-70h382.8c38.6 0 70 31.4 70 70v382.9c0 38.5-31.4 69.9-70 69.9M108.6 55.6c-29.2 0-52.9 23.7-52.9 52.9v382.9c0 29.2 23.8 52.9 52.9 52.9h382.8c29.2 0 52.9-23.7 52.9-52.9V108.6c0-29.2-23.7-52.9-52.9-52.9H108.6z"/></svg>