<svg xmlns="http://www.w3.org/2000/svg" xml:space="preserve" viewBox="0 0 600 600"><path d="M344.8 245.6c8.7 11.7 17.3 23.4 26 35 5.4 7.2 12.1 12.2 21.9 14.5 21.4 5 42.6 10.9 63.9 16.6 11.7 3.2 21-.1 24.4-8.9 3.7-9.7-1.5-17.9-13.1-22.4-19.2-7.4-38.4-15-57.2-23.2-4.9-2.2-10.2-6.4-12.3-10.9-8.6-18.2-16.5-36.8-23.8-55.4-5.3-13.3-7.7-27.9-23-35.6-7-3.5-13.8-7.4-20.8-11-7.8-4-15.7-3.7-22.3 1.6-6.1 5-12.6 10.3-16.5 16.7q-28.2 45.75-54.9 92.4c-4.8 8.5-8.2 18-10.4 27.4-4.2 18.1-1.5 34.2 14.5 48.1 24.6 21.4 47.9 44.1 71.5 66.4 8 7.6 16.2 15.1 18.3 26.5 4.4 23.4 9.5 46.6 14.1 69.9 3.4 17.3 6.2 34.7 9.6 52 2.3 11.9 11.9 18.2 24.4 16.7 10.8-1.3 19.1-10.3 18.2-20.5-3.5-41.4-6.9-82.9-11-124.2-.9-9.2-3.1-19.1-7.8-27.1-7.9-13.5-18.1-25.9-27.8-38.5-11.2-14.5-22.9-28.7-34.1-43.2-1.6-2-3.3-5.6-2.4-7.3 9.9-18.5 20.3-37 30.6-55.6m-43.4-109.3c-13.4-5.6-26.7-10.7-39.5-16.7-6.2-2.9-11.9-3.7-18.4-1.9-6.2 1.7-12.5 2.7-18.7 4.3-11.4 3-23.4 5.9-31 14.8-13.5 15.8-27.2 31.7-38.7 48.7-14 20.7-23.7 43.2-22.5 68.5.6 12.9 6.2 22.3 19.1 27.7 6 2.5 12 5 20.2 8.4-9 13.2-17.6 25.7-26.5 38.6 2 .9 5.4 2.4 10.1 4.5 8.5-13.9 16.9-27.4 25.2-40.9 12.3 2.7 13.2.4 10.9 13.4-1.5 8.7-4.1 17.3-6.2 26.1 3.2.3 7 .6 10.7 1 15.5-74.6 48-140.9 105.3-196.5m-69.5 202.1c-6.8 27.3-13.1 51.7-18.7 76.2-3.8 16.6-11.8 30.3-25.5 41.9-21.3 18-41.5 37-62.3 55.5-7.5 6.7-9.7 16.5-5.3 24.1 4.7 8 14.7 12.5 24.2 9.9 4.5-1.3 8.8-3.9 12.5-6.7 25.6-20.2 51.2-40.4 76.4-61.1 8-6.6 17.4-13.2 21.7-21.7 10.5-20.8 18.5-42.6 27.2-64.2.7-1.9-.2-5.2-1.7-6.7-15.7-15.4-31.5-30.7-48.5-47.2m98.7-236.7c.6 24.1 21.4 42.9 47.1 42.8 25.6-.1 47-20.7 46.2-44.4-.8-24.6-21.9-42.4-49.5-41.7-24.2.7-44.4 20.7-43.8 43.3"/><path d="M344.8 245.6c-10.3 18.6-20.7 37-30.6 55.7-.9 1.7.9 5.3 2.4 7.3 11.2 14.5 23 28.6 34.1 43.2 9.7 12.6 19.8 25 27.8 38.5 4.7 8 6.9 17.9 7.8 27.1 4.2 41.4 7.5 82.8 11 124.2.9 10.1-7.4 19.1-18.2 20.5-12.6 1.5-22.1-4.8-24.4-16.7-3.4-17.3-6.2-34.7-9.6-52-4.6-23.3-9.8-46.6-14.1-69.9-2.1-11.4-10.3-18.9-18.3-26.5-23.6-22.3-46.9-45-71.5-66.4-16-13.9-18.7-30-14.5-48.1 2.2-9.4 5.5-18.9 10.4-27.4 17.7-31.1 36.1-61.9 54.9-92.4 3.9-6.4 10.4-11.7 16.5-16.7 6.6-5.3 14.5-5.7 22.3-1.6 7 3.6 13.8 7.4 20.8 11 15.3 7.7 17.8 22.3 23 35.6 7.4 18.7 15.2 37.2 23.8 55.4 2.1 4.5 7.4 8.7 12.3 10.9 18.8 8.2 38 15.8 57.2 23.2 11.7 4.5 16.8 12.7 13.1 22.4-3.4 8.8-12.6 12-24.4 8.9-21.2-5.7-42.4-11.7-63.9-16.6-9.8-2.3-16.5-7.3-21.9-14.5-8.6-11.7-17.3-23.4-26-35.1"/><path d="M301.4 136.3c-57.2 55.6-89.7 121.9-105.3 196.5-3.7-.3-7.4-.7-10.7-1 2.1-8.8 4.6-17.4 6.2-26.1 2.3-13 1.4-10.7-10.9-13.4-8.3 13.5-16.7 27-25.2 40.9-4.7-2.1-8.1-3.6-10.1-4.5 8.8-12.9 17.4-25.4 26.5-38.6-8.2-3.4-14.2-5.9-20.2-8.4-12.9-5.4-18.5-14.8-19.1-27.7-1.2-25.3 8.5-47.8 22.5-68.5 11.5-17 25.2-32.9 38.7-48.7 7.6-8.9 19.6-11.8 31-14.8 6.2-1.6 12.6-2.6 18.7-4.3 6.5-1.8 12.2-1 18.4 1.9 12.8 5.9 26.1 11 39.5 16.7M231.9 338.4c17 16.5 32.9 31.7 48.4 47.2 1.5 1.5 2.4 4.9 1.7 6.7-8.7 21.5-16.7 43.4-27.2 64.2-4.3 8.5-13.7 15.2-21.7 21.7-25.2 20.6-50.8 40.9-76.4 61.1-3.6 2.9-8 5.5-12.5 6.7-9.4 2.6-19.5-1.9-24.2-9.9-4.4-7.5-2.2-17.4 5.3-24.1 20.7-18.5 41-37.5 62.3-55.5 13.7-11.6 21.7-25.4 25.5-41.9 5.7-24.4 12-48.8 18.8-76.2M330.6 101.7c-.6-22.7 19.6-42.6 43.9-43.3 27.6-.7 48.7 17.1 49.5 41.7.8 23.7-20.6 44.3-46.2 44.4-25.8.2-46.6-18.7-47.2-42.8"/><ellipse cx="414.7" cy="85.2" rx="13.4" ry="50.8" transform="rotate(-68.6 414.715 85.17)"/><path d="M436.2 82c6.2 16.9-30.6 23.1-53.7 14.1s-64.1-7.1-29.8-46.8c12-13.9 37.5-16 58.5-3 17.3 10.6 19.3 20.2 25 35.7"/></svg>