<svg xmlns="http://www.w3.org/2000/svg" xml:space="preserve" viewBox="0 0 600 600"><path d="M58.9 593.5c-1.3-2.8-3.6-5.5-3.7-8.4-2.2-40.1.1-79.6 16.4-117 13.7-31.4 35.8-53.9 68.7-65.4 22-7.7 43.6-16.6 65.6-24.4 3.2-1.1 8.1-.5 11 1.4 15 9.5 29.5 19.7 44.2 29.7 7.1 4.8 7.3 7.8 1.4 13.8-7.3 7.3-14.6 14.7-22.8 22.8 8.3 8.2 16.6 16.3 24.8 24.4 6.6 6.6 6.7 8 1.1 15.2-6.2 8-12.2 16.2-18.8 23.9-3.4 4-3.1 7-.9 11.3 10.5 20.9 20.6 41.9 31 62.8 1.8 3.6 2.4 6.6-.4 9.8-72.5.1-145.1.1-217.6.1M323.8 593.5c-2.5-3.1-2.4-6-.5-9.7 10.6-20.6 20.7-41.3 31.2-61.9 2.1-4.1 2.2-7-1-10.8-6.9-8.3-13-17.3-19.9-25.5-4.4-5.2-3.6-8.8 1.1-13.1 8.7-8.1 17.1-16.6 26.1-25.4-8-7.9-15.5-15.2-22.9-22.6-5.6-5.6-5.3-9 1.1-13.4 14.8-10.2 29.6-20.5 44.6-30.3 2.7-1.8 7.4-2.7 10.4-1.7 26.7 9.9 53.7 19.3 79.7 30.7 31 13.6 49.4 39.4 59.2 70.8 5.4 17.4 7.6 35.9 11.2 53.9.4 2.2.9 4.3 1.3 6.5v52.7c-73.8-.2-147.7-.2-221.6-.2M301.4 6.5c6.1 3.1 12.8 5.6 18.5 9.5 8.7 6 16.4 13.4 24.9 19.6 16.8 12.2 36.4 17.1 56.6 19.7 6.2.8 12.5.9 18.8 1.5 12.3 1.1 17.8 6.6 19.8 19 2 12.9 4.6 25.7 12.6 36.6 2.5 3.4 5.3 6.7 8.1 9.9 3.6 4.2 3.3 8.1-.8 11.8-7.5 6.8-14.8 13.8-22.6 20.3-1.6 1.3-5.1 1.8-7 .9-32.6-15.2-67.2-22.5-102.5-26.7-30.9-3.7-61.5-1-91.9 5.5-22.6 4.9-45 10.3-66 20.6-2.3 1.1-7 .5-9-1.2-8.5-7-16.6-14.6-24.3-22.4-1.4-1.5-1.4-5.2-.8-7.7.5-2.2 2.5-4.3 4.2-6 10.5-10.8 14.9-24.4 17.5-38.7 2.9-15.8 10.3-21.3 26.3-22.2 31.6-1.7 61.3-8.9 85.1-31.9 5.3-5.1 11.7-9.2 18-12.9 4.1-2.3 8.8-3.2 14.5-5.2M174.8 238.2c0-4.3-.4-8.6.1-12.8.3-2.1 1.6-4.8 3.3-5.8 1.2-.7 4.4.3 5.8 1.6 25.4 23.6 56.9 31.3 89.9 32.5 25.5.9 51.3 0 76.7-2.7 25.5-2.7 49.2-11.9 68.8-29.7 1.5-1.4 5.1-2.4 6.3-1.5 1.8 1.3 3.1 4.3 3.2 6.6.6 33.6-9.1 63.8-31.2 89.5-24.6 28.6-56.2 44.6-93.5 45.8-62.2 2-117.2-41.5-127.7-102.7-1.2-6.8-1.6-13.8-2.3-20.8q.3.15.6 0"/><path d="M299.7 243.5c-23.3.8-46.3-1.4-68.7-8.5-16.2-5.1-30.7-13-40.9-27.1-4.2-5.8-3.7-8.2 2.9-11.4 22.3-10.8 46-16.4 70.4-19.4 24.5-3 48.9-3.1 73.4 0 25.1 3.1 49.5 9 72.3 20.3 7.1 3.5 7.3 5.4 2.3 11.7-13.2 16.7-31.7 24.5-51.5 28.4-19.7 3.8-59.5 5.9-60.2 6M308.1 477.8c9.1 11.6 18 22.9 27 34.1 2.9 3.5 3.6 6.4 1.5 10.8-9.6 20.3-18.5 40.9-28.1 61.2-1.4 3-5 5-7.5 7.5-2.3-2.5-5.5-4.6-6.9-7.5-9.6-20.3-18.7-40.8-28.1-61.2-2.4-5.1-2.1-9.1 1.6-13.5 8.8-10.5 17.1-21.4 25.7-32.4-8.1-8.2-15.9-16.2-23.7-24.2-6.7-6.8-6.8-8.1-.2-14.7 8.4-8.5 16.9-16.8 25.3-25.3 4.2-4.3 7.9-4.2 12.1 0 8.7 8.8 17.6 17.5 26.2 26.3 4.7 4.8 4.6 9-.3 13.9-8.1 8.3-16.1 16.4-24.6 25"/><path d="M301.4 139.6c42.3.4 82.9 9.8 122.2 24.9 2.3.9 5.2 4.7 4.9 6.6-.9 4.8-3.3 9.4-5.5 13.9-.2.5-3.8-.3-5.5-1.1-41.4-17.7-84.9-23-129.4-21.3-36 1.3-71 7.6-104.1 22.7-1.4.6-4.5.7-4.7.2-2.1-5-4.5-10-5.1-15.3-.2-1.9 3.6-5.6 6.3-6.4 17.3-5.6 34.5-12 52.2-15.6 22.6-4.8 68.7-9.2 68.7-8.6"/></svg>