<svg xmlns="http://www.w3.org/2000/svg" xml:space="preserve" id="Capa_1" x="0" y="0" style="enable-background:new 0 0 600 600" version="1.1" viewBox="0 0 600 600"><style>.st0{fill:#f0e04b}.st1{fill:none;stroke:#fff;stroke-width:1.0682;stroke-miterlimit:10}.st2{stroke-width:1.1534}.st2,.st3{fill:none;stroke:#fff;stroke-miterlimit:10}.st4{fill:#020818}.st5{fill:#fff}.st6{fill:#9e9e9e}.st7{fill:none;stroke:#fff;stroke-width:.5;stroke-miterlimit:10}.st8{fill:#606060}.st9{clip-path:url(#SVGID_26_)}.st10{stroke-linecap:round}.st10,.st11,.st12,.st13,.st14{fill:none;stroke:#fff;stroke-miterlimit:10}.st11{stroke-width:2;stroke-linecap:round}.st12,.st13,.st14{stroke-width:1.2178}.st13,.st14{stroke-width:1.1071}.st14{stroke-width:2.7313}.st15{fill:#fcfcfc}.st16{fill:#0e0e0e}.st17{fill:#0c0c0c}.st18{fill:#0d0d0d}.st19{fill:#111}.st20{fill:#090909}.st21{fill:#f1f1f1}.st22{fill:#eaeaea}.st23{fill:#c78a5d}.st24{fill:#3a4755}.st25{fill:#3b4955}.st26{fill:#dee7ee}.st27{fill:#3b4959}.st28{fill:#ebf2f7}.st29{fill:#e4d398}.st30{fill:#3c4853}.st31{fill:#2e3a40}.st32{fill:#3f444a}.st33{fill:#f2d88e}.st34{fill:#f8e5a8}.st35{fill:#c7be93}.st36{fill:#e7debc}.st37{fill:#fcfcfd}.st38{fill:none;stroke:#606060;stroke-width:5;stroke-linejoin:round}.st39{opacity:.33;fill:#4ca7ab}.st40,.st41{fill:none;stroke:#000;stroke-width:.5;stroke-miterlimit:10}.st41{stroke-width:.9421}.st42{fill:#f9f4be}.st43{fill:#3c3d3e}.st44{fill:#f7f3be}.st45{fill:#33302b}.st46{fill:#2d3330}.st47{fill:#262422}.st48{fill:#4c4d4b}.st49{fill:#363535}.st50{fill:#272530}.st51{fill:#37352b}.st52{fill:#eecc53}.st53{fill:#88e56a}.st54{fill:#f8f8f9}.st55{fill:#89793a}.st56{fill:none;stroke:#000;stroke-width:2.5;stroke-miterlimit:10}.st57{fill:#b6b5b5}.st58{fill:#009aab}.st59{fill:#c34340}.st60{fill:#c44844}.st61,.st62{fill:none;stroke:#000;stroke-width:21;stroke-miterlimit:10}.st62{stroke-width:15}.st63{fill:#fdfcfc}.st64{fill:#fefefe}.st65{fill:#efe6a5}.st66{fill:#fcf9f9}.st67{fill:#fdfdfd}.st68{fill:#fefdfd}.st69{fill:#a74b50}.st70{fill:#a74c51}.st71{fill:#e8b3b0}.st72{fill:none;stroke:#a33434;stroke-width:4;stroke-linecap:round;stroke-miterlimit:10}.st73{fill:#a74b4f}.st74{fill:#a6494e}.st75{fill:#e9b3b1}.st76{fill:#fcfbfb}.st77,.st78,.st79{stroke:#000;stroke-miterlimit:10}.st78,.st79{stroke-width:.75}.st79{fill:none;stroke-width:4;stroke-linecap:round}.st80{fill:#d1e2fc}.st81{fill:#fcfcfe}.st82{fill:#777}.st83{fill:#1c227d}.st84{fill:#e28b80}.st85{fill:none;stroke:#000;stroke-width:17;stroke-miterlimit:10}</style><path d="M83.9 575.6c-6.6-4.2-11.7-9.6-13.9-17.3-2.2-7.6-1-14.7 2-21.8 15.1-36.5 30.1-73 45.1-109.5.6-1.5 1.3-3.2 1.3-4.8 1.2-28.3 3-56.6 3.3-84.9.5-55.4.2-110.7.1-166.1 0-11.6 3.8-21.4 13.1-28.7 7.3-5.7 15.7-7.3 24.7-6.9.8 0 1.6 1.4 2.4 2.2.2.2 0 .7 0 1.1.2 8 .2 8 7.7 10.1 31.5 9 63.1 17.9 94.6 26.9 2.5.7 4 0 5.8-1.5 19.6-16.5 39.2-33 58.9-49.4 12.9-10.8 30.2-7.7 37.7 6.6 4.4 8.6 3 20.1-4.2 26.8-9 8.3-18.5 16-27.8 23.9-14.6 12.3-29.3 24.4-43.7 36.8-8.6 7.4-17.8 9.1-28.7 5.8-28.5-8.7-57.2-17-85.8-25.4-.3-.1-.7 0-1.9 0 1.2.9 1.8 1.5 2.6 2 22.2 12.7 44.5 25.4 66.8 37.9 2.9 1.6 3.8 3.5 3.8 6.7-.1 27 0 54.1-.1 81.1 0 5.7 1 10.9 2.9 16.1 7.4 19.9 14.4 39.9 22.1 59.7 3.9 10.1 3.3 19.7 1 29.8-5.2 23.3-10 46.8-15 70.2l-11.1 52.5c-1.9 8.8-7.1 15.2-14.5 20-6.9 3.1-16.8 3.8-27.1 0-.6-.5-2-1.2-2.6-1.6-10.2-6.8-14.2-18-11.7-30 3.6-17.8 7.5-35.5 11.3-53.2 4.8-22.4 9.6-44.8 14.2-67.2.5-2.2.1-4.9-.6-7.1-4.8-13.7-9.9-27.3-14.9-40.9-3.8-10.4-7.6-20.8-11.5-31.1-1.6-4.2-4.8-5.8-8.1-4.3-3 1.4-3.5 4.2-3.6 7.1-1.1 27.1-2.1 54.3-3.5 81.4-.2 4.8-1.2 9.8-3 14.2-14.9 36.8-30.2 73.5-45.2 110.3-3.6 8.8-7.6 17.1-15.9 22.5-6.8 2.5-12 3.4-27 0zM196.1 23.7c5.4 1.7 9.8 3.5 14.5 6.1 17.7 9.8 27.7 34.5 22.1 53.7-.8 2.6-2.5 2.5-4.4 2.6-10 .1-20.1-.3-30.1.4-16.3 1.3-27.2 10.4-33.6 25.2-.5 1.1-.9 2.3-1.5 3.8-9-4.3-15.7-10.6-20.3-18.8-14.9-25.9-4.6-57.8 22.7-70.2 2.9-1.3 6-2.3 8.9-3.4 7.4-2.3 13.9-1.1 21.7.6zM377.3 107.8h93.6c5.5 0 5.5 0 5.6-5.4.1-2.3.1-4.7.7-6.9 1.2-4.4 6.3-7.7 11-7.5 5 .2 9.4 3.5 10.3 8.3.5 2.8.6 5.6.6 8.4 0 2.3.9 3.2 3.2 3.2 3.9-.1 7.7-.1 11.6.2 9.5.7 16.9 8.5 17.2 18.1.3 9.5-6.3 17.8-15.6 19.1-4.2.6-8.5.6-12.7.6-35.4 0-70.8-.1-106.2 0-3.5 0-4.7-.8-4.7-4.5-.1-11.8-4.5-22-12.3-30.8-.5-.5-1-1.1-2.3-2.8z"/><path d="M185.2 151.1c0-10-.6-19.9.2-29.7.5-6.7 6.8-11.5 13.6-12.4 2.3-.3 4.6-.3 6.9-.3h101.6c1.2 0 2.5.1 4.5.2-1.1 1.2-1.7 2-2.4 2.6-15.9 13.4-31.9 26.9-47.9 40.2-1.3 1-3.2 1.9-4.8 1.9-23.4-.6-46.8-1.4-70.2-2.2-.5.1-1-.1-1.5-.3zM301.7 84.6c9.3-8 14.8-20.2 27.3-24.7 14.9-5.4 31.4 7 30.9 22.7-.1 2.3-.5 3.6-3.2 3.5-17.5-.1-35-.1-52.5-.1-.6 0-1.2-.2-1.8-.4-.3-.3-.5-.7-.7-1z"/></svg>