<svg xmlns="http://www.w3.org/2000/svg" xml:space="preserve" viewBox="0 0 600 600"><path d="M52.9 475.1c-12.1-14.3-17.4-30.2-11.4-48.3 5.8-17.7 19.4-28 36.7-35.3-4.2-2.5-7.5-4.2-10.6-6.3-34.3-22.3-32.7-67.4 3.5-86.5 9.6-5.1 20.8-7.2 32-10.9 0 .3.1-1.1-.2-2.3-7.7-28.7 5.2-58.3 31.2-74.6 32.3-20.3 65.7-20.8 99.1-2.5 4.2 2.3 7 2.4 11.3.2 6.5-3.2 13.6-5.1 21.1-7.7-13.6-11.4-29.3-17.9-46.8-20.1-17.3-2.2-34.1-.2-50.9 6.6-3.7-17.9-3-34.8 3.8-51C187.3 99.5 216.4 79 254.4 71c37.5-7.9 72.9-1.5 104.6 21.1.8.6 1.7 1 2.5 1.5 6.1-6.9 12.1-13.7 18.3-20.6-19.3-12-42.6-16.8-68.7-17.4 3.2-3.4 5.2-6 7.6-8.1 28.3-25.1 76.2-20.1 97.1 9.9 1.1 1.6 4.8 2.5 6.9 2 26-6 51.6-4.9 76.4 4.8 37.8 14.8 64.2 40.5 69 82.5 3.9 34.6-11.5 61.5-38.5 83.4-.6-1.5-1.1-2.3-1.2-3.2-4.9-37.2-26.4-61.9-59.3-77.4-45.9-21.7-104.3-11.7-138 23.1-18 18.6-27.5 40.7-26.2 66.9.1 1.9.5 3.7.9 6.9 1.1-1.9 1.6-2.5 1.8-3.1 11.4-38.3 38-61.3 75.5-71 47-12.2 89.4-2.7 122.7 34.1 32.6 36 29.5 88.9-6.1 122-31.2 29-68.5 37.1-109.8 29.3-3.3-.6-6.6-1.4-10.1-2.2-.6 1.1-1.2 1.9-1.5 2.8-7.3 22.9-23.9 35-46.5 39.8-4.1.9-6.4 2.2-8 6.4-10 25.2-38.2 40.1-67.5 35.9-3.1-.4-6.2-1-9.7-1.6-.1 1.2-.4 2.2-.2 3 6.5 28.2-12.4 51.9-37.1 60.1-18.4 6.1-36.5 5.1-54-3.5-1.2-.6-2.5-1-4.3-1.7 1.1 5.2 2.6 9.7 3 14.3 1.7 18.5-5.9 33.1-20.2 44.1-27 20.6-67.9 17.3-89.3-6.8-18.7-21.1-17.1-49.9 3.8-68.9 1.3-1.4 2.8-2.7 4.6-4.3m159.5-71.7c.5-.7 1.1-1.3 1.6-2-1.6-1.1-3.4-2-4.9-3.2-21.6-17.9-55.2-20.1-78.9-5.3-35.5 22.3-34.8 68.3 1.4 88 1.2.7 2.6 1 2.5 1-2.7-9-7.2-18.2-8.1-27.8-2.1-22.7 14.7-44 38.9-51.7 15.9-5 31.7-4.4 47.5 1m78.5-52.5c1.6-1.3 2.5-1.8 3.1-2.5 13.4-14.8 15.8-37.3 5.9-54.5-21.8-37.6-82.9-40-107.4-4.1-2.2 3.1-3.7 6.7-5.5 10.1 2.1.1 3.1-.4 4-1.1 14.6-11 31.1-14.7 49-12.9 27 2.8 58.4 25 50.9 65"/></svg>