<svg xmlns="http://www.w3.org/2000/svg" xml:space="preserve" id="Capa_1" x="0" y="0" style="enable-background:new 0 0 600 600" version="1.1" viewBox="0 0 600 600"><style>.st0{fill:#f0e04b}.st1{fill:none;stroke:#fff;stroke-width:1.0682;stroke-miterlimit:10}.st2{stroke-width:1.1534}.st2,.st3{fill:none;stroke:#fff;stroke-miterlimit:10}.st4{fill:#020818}.st5{fill:#fff}.st6{fill:#9e9e9e}.st7{fill:none;stroke:#fff;stroke-width:.5;stroke-miterlimit:10}.st8{fill:#606060}.st9{clip-path:url(#SVGID_26_)}.st10{stroke-linecap:round}.st10,.st11,.st12,.st13,.st14{fill:none;stroke:#fff;stroke-miterlimit:10}.st11{stroke-width:2;stroke-linecap:round}.st12,.st13,.st14{stroke-width:1.2178}.st13,.st14{stroke-width:1.1071}.st14{stroke-width:2.7313}.st15{fill:#fcfcfc}.st16{fill:#0e0e0e}.st17{fill:#0c0c0c}.st18{fill:#0d0d0d}.st19{fill:#111}.st20{fill:#090909}.st21{fill:#f1f1f1}.st22{fill:#eaeaea}.st23{fill:#c78a5d}.st24{fill:#3a4755}.st25{fill:#3b4955}.st26{fill:#dee7ee}.st27{fill:#3b4959}.st28{fill:#ebf2f7}.st29{fill:#e4d398}.st30{fill:#3c4853}.st31{fill:#2e3a40}.st32{fill:#3f444a}.st33{fill:#f2d88e}.st34{fill:#f8e5a8}.st35{fill:#c7be93}.st36{fill:#e7debc}.st37{fill:#fcfcfd}.st38{fill:none;stroke:#606060;stroke-width:5;stroke-linejoin:round}.st39{opacity:.33;fill:#4ca7ab}.st40,.st41{fill:none;stroke:#000;stroke-width:.5;stroke-miterlimit:10}.st41{stroke-width:.9421}.st42{fill:#f9f4be}.st43{fill:#3c3d3e}.st44{fill:#f7f3be}.st45{fill:#33302b}.st46{fill:#2d3330}.st47{fill:#262422}.st48{fill:#4c4d4b}.st49{fill:#363535}.st50{fill:#272530}.st51{fill:#37352b}.st52{fill:#eecc53}.st53{fill:#88e56a}.st54{fill:#f8f8f9}.st55{fill:#89793a}.st56{fill:none;stroke:#000;stroke-width:2.5;stroke-miterlimit:10}.st57{fill:#b6b5b5}.st58{fill:#009aab}.st59{fill:#c34340}.st60{fill:#c44844}.st61,.st62{fill:none;stroke:#000;stroke-width:21;stroke-miterlimit:10}.st62{stroke-width:15}.st63{fill:#fdfcfc}.st64{fill:#fefefe}.st65{fill:#efe6a5}.st66{fill:#fcf9f9}.st67{fill:#fdfdfd}.st68{fill:#fefdfd}.st69{fill:#a74b50}.st70{fill:#a74c51}.st71{fill:#e8b3b0}.st72{fill:none;stroke:#a33434;stroke-width:4;stroke-linecap:round;stroke-miterlimit:10}.st73{fill:#a74b4f}.st74{fill:#a6494e}.st75{fill:#e9b3b1}.st76{fill:#fcfbfb}.st77,.st78,.st79{stroke:#000;stroke-miterlimit:10}.st78,.st79{stroke-width:.75}.st79{fill:none;stroke-width:4;stroke-linecap:round}.st80{fill:#d1e2fc}.st81{fill:#fcfcfe}.st82{fill:#777}.st83{fill:#1c227d}.st84{fill:#e28b80}.st85{fill:none;stroke:#000;stroke-width:17;stroke-miterlimit:10}.st86,.st87{stroke-width:18;stroke-linecap:round;stroke-linejoin:round}.st86{fill:none;stroke:#606060}.st87{stroke-dasharray:31.0785,56.9773}.st87,.st88,.st89,.st90{fill:none;stroke:#606060}.st88{stroke-width:18;stroke-linecap:round;stroke-linejoin:round;stroke-dasharray:31.6378,58.0026}.st89,.st90{stroke-width:10;stroke-miterlimit:10}.st90{stroke:#000}</style><path d="M520.1 152.8c-3.7-8.4-8.3-9.6-16.3-5.1-10 5.6-19.8 11.5-29.3 17.9-3.9 2.6-6.8 6.8-10.2 10.3-7.9 2.2-15.9 6.9-26.8 1.8-8.3-3.9-20.9.8-31.5 2.4-6.3.9-14 1.4-12.6 11.7-7.5 1.2-14.6 1.9-21.3 3.8-3.1.9-7.1 3.7-8 6.5-5.4 16.6 5 29.2 21.7 26.4 5.8-1 11.2-1.2 13.2 4.8 1.2 3.7.9 9.4-1.2 12.5-17.7 25.5-35.9 50.6-54.1 76-7.4-3.4-13.6-6.1-19.6-9.1-1.4-.7-3.5-2.7-3.2-3.4 2.2-6.5-3.3-7.3-6.8-9.4-12.8-7.7-26.6-14.2-38.4-23.3-9.5-7.4-16.7-17.7-24.7-27-1.1-1.3-1.2-3.9-1.1-5.8.7-10.8 4.2-13.2 16.7-12 11.4 1.1 15.6-2.8 15.6-14.1 0-4.7 1-9.3 1.6-14 .7-4.9 1.2-9.4 7.6-11.3 5.8-1.7 5.5-7 3-11.7-2.4-4.7-5.6-9-7.5-13.9-4.7-12.3-.7-17.3 12.1-17 5.4.1 11.7 2.5 15.9-3.6-.6-1.1-.9-2.2-1.5-2.5-6.3-3.7-12.7-7.4-19.1-11-11-6.2-12.2-8.9-10.3-21.4 1.7-10.4 3.8-20.8 4.6-31.4.7-9.9-6.5-14.3-15.7-10.5-34.7 14.4-69.4 28.7-104.1 43.2-4.7 1.9-11.8 3-10.3 9.8.9 3.9 5.9 6.8 9.2 10.1 3.1 3.2 8.9 6 9.2 9.3 1.4 19.2 8 36.3 15.7 53.7 3.3 7.5 1.8 18.9-1.4 26.9-3.2 7.9-11.2 13.9-17.4 20.3-34.3 35.3-44.5 78.4-41 125.8 2.3 31.6-1.3 165.1-.8 179h160.8c.1-10.4.1-20.9 0-31.3-.6-41.8-.9-83.5-1.1-125.3 0-4.9-1.7-7.1-6-9.2-20.6-9.9-41-20.3-61.4-30.5.3-.9.7-1.8 1-2.7 18.8 7.3 37.8 14.3 56.4 22.1 6.4 2.7 11.8 5.3 15.2-1.8 17.7 4.1 34.7 7.5 51.4 11.9 11.1 2.9 18.4-1.3 25-9.7 16.9-21.5 28.9-45.5 39.3-70.6 10.6-25.7 22.6-50.9 34.2-76.2.9-1.9 3.8-3.8 5.8-3.9 8.7-.6 16.4-3.3 26 2.4 10.6 6.3 24.7 6.8 37.3 9.6 9.6 2.1 13.1-.1 14.6-10 3.9-24.1-.6-47.3-10.4-69.5zm2.6 70.6c-10.5-10.8-17.2-55-10.6-69.1 11.5 12.1 17.8 53.6 10.6 69.1z"/></svg>